<svg id="Capa_1" data-name="Capa 1" xmlns="http://www.w3.org/2000/svg" viewBox="0 0 542.5 745.55"><defs><style>.cls-1{fill:#eaae96;}.cls-2{fill:#bf694b;}.cls-3{fill:#ed1c24;}.cls-4{fill:#575757;}</style></defs><path class="cls-1" d="M59.42,289.16a531.48,531.48,0,0,1,10-97.31c1.5-7.49,3.47-14.89,5-22.38.65-3.13,2.62-4.35,5.42-4.91,17.1-3.42,34.07-7.87,51.33-10.07,34-4.34,68.14-3.5,102.16.46C271,159.34,306.94,170,341.55,185.26a6.39,6.39,0,0,1,3,4.67c.35,6.65,0,13.32.21,20,.35,12.7,5.18,23.66,13.72,32.91a15.26,15.26,0,0,1,4.22,12.7c-1,10.43-1.83,20.89-2.37,31.36-.46,9.14,4.49,14.44,12.59,13.11,2.88-.47,6-2.81,7.93-5.15,4.37-5.22,7.87-11.14,12.1-16.48,10.24-12.92,27.63-17.21,40.69-9.8,11,6.23,15.88,16.89,16.53,28.72,1.49,27.15-8.26,49.93-29.79,66.94a43.21,43.21,0,0,1-28.34,9.44,25.19,25.19,0,0,1-18.5-8.48c-4.4-4.7-7-4.16-9,2-7.68,23.54-17.12,46.26-32,66.27-34.1,45.85-79.73,70.18-137,68.93-51-1.11-87.27-26.63-109.39-72.55-11.33-23.52-17.48-48.5-20.64-74.17C62.84,333.6,61.41,311.34,59.42,289.16ZM265,204c-4.3.31-8.72.14-12.9,1-10.05,2.14-20.15,4.27-29.9,7.43-6.1,2-9.28,10-7.72,15.73s7,8.79,14.29,8.2c1.82-.15,3.64-.42,5.45-.63,10.74-1.23,21.45-3,32.22-3.58a173.88,173.88,0,0,1,49.09,4.57c2.78.65,6.28,2.31,8.65-1.3s.82-7-1.43-9.62c-3.66-4.23-7.5-8.59-12.09-11.65C296.85,205,280.81,204.76,265,204ZM71,228.29c-.26,7.3,1.68,8.55,8.51,6.63A111.39,111.39,0,0,1,98,231.17c18.09-1.86,35.77,1.06,53.28,5.4,7.95,2,14.86-3.58,14.61-11.65-.2-6.76-4.72-10.35-10.34-12.73-11.14-4.74-22.88-6.82-34.91-7.37-11-.51-21.92-.71-32.5,3.12S71.33,219.13,71,228.29ZM175,369.92c8.67-.89,14.56-1,20.18-2.33,2.07-.47,4.65-3.52,5-5.69.47-3.33-2.74-4.52-5.81-4.66-1.65-.08-3.33.27-5,.15-8.9-.66-18-.43-26.63-2.39-10-2.27-13.18-10.21-9.46-19.7,2-5.1,4.31-10.09,6.49-15.12A243.07,243.07,0,0,0,178,256.12c.68-5-1-9-4-8.92-4.81.1-4.43,4.3-5,7.35a248.36,248.36,0,0,1-15.63,51.92c-4.27,9.9-9.25,19.58-12.64,29.78-4.08,12.28,1.37,23.88,13.39,28.58C161.47,367.74,169.66,368.69,175,369.92Zm6.29,46.88c12-1.73,25.23-3.12,38.21-5.66a69.72,69.72,0,0,0,28.75-13.35c3.14-2.4,5.39-5.65,2.86-9.42s-5.79-1.58-8.84,0c-5.92,3-11.7,6.51-17.95,8.59-24.61,8.16-49.49,9.23-74.42,1.21-3.08-1-6.19-1.13-6.87,2.31-.44,2.21.79,5.45,2.4,7.2s4.58,2.76,7.13,3.33C161.58,413,170.69,414.68,181.27,416.8ZM405.39,314.06a37.19,37.19,0,0,1,22-20.13c2.82-1,6.06-2.09,5.09-6.12-1-4.32-4.75-3.54-7.78-3.24a19.92,19.92,0,0,0-6.65,1.92c-11.59,5.66-20,14.18-23.48,26.94-2,7.18-.68,9.36,6.48,10.73,6.92,1.33,9.4,6.38,5.16,12-2.73,3.6-6.94,6-10.24,9.24-1.15,1.12-2.52,3.36-2.1,4.41.59,1.46,2.64,2.59,4.31,3.23,1.07.41,2.62-.17,3.86-.59a24.84,24.84,0,0,0,16.22-21.49C418.75,321.89,413.72,316.83,405.39,314.06Z"/><path class="cls-1" d="M359.64,414.05c1.22,22.2,2.26,45.92,4,69.59.45,6.18,2.67,12.33,4.75,18.25a11.77,11.77,0,0,1-.31,9.49c-6.36,14-16.27,25-28.11,34.49-19.89,16-42,27.69-66.85,33.42-27.82,6.41-55.78,8.37-82.59-4.26-12.34-5.81-21-15.14-18.68-33.38.93-7.48-.14-15.2-.29-22.81,0-1.64,0-3.27,0-4.57C257.82,523.29,319.69,487.81,359.64,414.05Z"/><path class="cls-2" d="M46.69,269c2,30.94,3.89,61.41,5.91,93.25-4.34-3.81-9-6.8-12.22-10.92C29.15,336.93,26.59,320,27.44,302.25c.44-9.29,2.26-18.16,7.92-25.86A17.76,17.76,0,0,1,46.69,269Z"/><path d="M263.56,194.1c20.62,1.25,41.51,1.57,59.49,16.16,6,4.85,11,11.77,15.75,18.46,2.93,4.11,4.95,9.54,1.87,15.26s-7.66,3.1-11.28,2.07a187.38,187.38,0,0,0-64-7.24c-14,.92-28,3.71-42,5.67-2.37.33-4.73.77-7.11,1-9.53.94-16.62-4-18.61-13-2-9.16,2.1-21.82,10.06-25,12.7-5,25.86-8.38,38.94-11.78C252.2,194.32,258,194.59,263.56,194.1Z"/><path d="M65.69,230.94c.36-12.4,7.32-22.38,19-27.55s24-4.91,36.16-4.23c13.37.75,26.44,3.57,38.83,10,6.24,3.23,11.27,8.09,11.5,17.24.27,10.93-7.42,18.44-16.25,15.77-19.48-5.87-39.14-9.83-59.26-7.31a103.83,103.83,0,0,0-20.54,5.08C67.56,242.52,65.41,240.82,65.69,230.94Z"/><path d="M175,369.92c-5.32-1.23-13.51-2.18-20.94-5.09-12-4.7-17.47-16.3-13.39-28.58,3.39-10.2,8.37-19.88,12.64-29.78a248.36,248.36,0,0,0,15.63-51.92c.58-3.05.2-7.25,5-7.35,3-.07,4.73,4,4,8.92a243.07,243.07,0,0,1-18.24,64.06c-2.18,5-4.49,10-6.49,15.12-3.72,9.49-.5,17.43,9.46,19.7,8.61,2,17.73,1.73,26.63,2.39,1.64.12,3.32-.23,5-.15,3.07.14,6.28,1.33,5.81,4.66-.31,2.17-2.89,5.22-5,5.69C189.54,368.89,183.65,369,175,369.92Z"/><path d="M181.27,416.8c-10.58-2.12-19.69-3.81-28.73-5.83-2.55-.57-5.47-1.54-7.13-3.33s-2.84-5-2.4-7.2c.68-3.44,3.79-3.29,6.87-2.31,24.93,8,49.81,6.95,74.42-1.21,6.25-2.08,12-5.6,17.95-8.59,3.05-1.54,6.34-3.68,8.84,0s.28,7-2.86,9.42a69.72,69.72,0,0,1-28.75,13.35C206.5,413.68,193.29,415.07,181.27,416.8Z"/><path class="cls-3" d="M418.69,215.46c-39.36-31.17-83.81-51.89-132.67-65.05.75-4.92,1.48-9.94,2.29-14.94,1.56-9.7-.89-14.32-10.24-17.61-4.06-1.43-5.94-3.51-6.72-7.86-4.24-23.6-26.92-43.86-51.71-46.95a149,149,0,0,0-42.75.49c-23.48,3.83-40.46,16.84-52.78,36.58a134.39,134.39,0,0,0-7.56,14c-2.17,4.59-.54,6.56,4.6,5.87,13.68-1.81,27.29-4.23,41-5.45,25.05-2.23,50.13-2.53,75.9,1.49-1.38,7.89-2.6,15.54-4.2,23.1-.16.74-2.64,1.43-4,1.39-23.29-.75-46.58-2.48-69.85-2.26a296.52,296.52,0,0,0-91.64,15.29c-2,.67-4.06,1.16-6.69,1.91,3.22-20.35,9.12-39,18.66-56.57C99.55,63.67,129.4,41.28,166.7,28.22c36.63-12.82,74.47-15.56,112.81-11.6,35.34,3.65,67.16,16.22,93.71,40.34,16.18,14.69,27.46,32.86,35.4,53.15,9.87,25.23,12.29,51.6,12.09,78.38-.07,8.78,0,17.57,0,26.35Z"/><path class="cls-3" d="M428.33,251.68c1-4.92,2.08-10.05,3.26-15.76,23.53,19.9,47.56,38.44,64.79,63.9,5.69,8.41,4.05,13.43-5.36,17.48-9.23,4-18.79,3.27-28.79,2.32C465.5,289.89,461.19,264.06,428.33,251.68Z"/><path class="cls-4" d="M275.91,149.38l-31.23-6c1.39-8.45,2.75-16.7,4.28-26,9.76,3.23,19.3,6.3,28.74,9.62.89.32,1.85,2.36,1.69,3.43C278.44,136.61,277.16,142.75,275.91,149.38Z"/><ellipse cx="249.23" cy="285.55" rx="16" ry="27"/><ellipse cx="121.23" cy="284.55" rx="16" ry="27"/><path class="cls-2" d="M380.23,523.55c-1-30-11-71.73-11-71.73V401.55l-27,31.24h0l-5,5.76V440c-64.68,88.75-171.33,64-171.33,64v24.6c74.58,35.24,151.36-33.89,171.33-53.87v76.11S381.23,553.55,380.23,523.55Z"/><path class="cls-2" d="M61.67,179.45s148.82-34.81,263.69,14.65l16.84,43.58L316.3,282.4s21.93,18.15,32.93,11.15c0,0-11,139-24,161l114.54-84.63L455.88,327s-4.65-62.47-18.65-64.47S399.9,237,399.9,237l-38.67-48.42-35.87-21S187.76,119.18,71,158.87Z"/><path d="M22.45,651.05c4-12.34,10.91-23.06,18.46-33.45,18.76-25.83,44.3-43.38,71.6-58.8q21.49-12.13,43.06-24.17c3.51-2,4.54-4.54,4.64-8.83.22-10.29-2-16.21-13.47-20.42-37.14-13.65-60.32-42.23-75-77.87-5.8-14.08-9.43-29.06-13.76-43.72-1.2-4.06-2.1-6.93-7-8.78-15-5.71-24.64-17.45-30.21-32.15-7.26-19.18-8.65-39-2.94-58.82,3.2-11.1,9.12-20.71,21-26.34-14.73-3.89-25.21-11.77-30.35-25.55-5.39-14.43-.57-26.38,10-37-2.54-2.12-5-4-7.25-6.06-12.4-11.23-15.16-34.84-5-48.09,3-3.89,7.72-6.68,12.11-9.17,3.37-1.92,6.11.22,6,3.82-.35,12.54,7.29,20.9,19.84,21.68.49,0,1,0,2,0,1.77-7.69,3.34-15.46,5.36-23.11,9-34.17,25.58-63.83,52.73-87,24.38-20.8,52.94-33.17,83.88-40,35.59-7.84,71.56-10,107.58-3.13,40.47,7.71,75.53,25.43,101.83,58.07,18.15,22.53,28.75,48.53,33.8,76.87,4.64,26,4.49,52.2,2.37,78.46-.15,1.8,1.26,4.38,2.75,5.58,19.8,15.82,39.48,31.77,56.32,50.8a157.19,157.19,0,0,1,16.71,22.28c6.7,11,3.88,21.47-6.52,29.27-9.5,7.12-20.49,8.23-31.79,8.07-4.15,0-8.29-.53-12.33-.8l-11.12,22.18c5.67,3.32,11.54,4.49,17.91,1.65,6.81-3,9.33-1.73,9.93,5.53,2.07,25-11.69,48.36-39.56,51.26-1.29.14-2.56.54-4.17.88,1.64,4.14,2.84,8.15,4.76,11.78a13.66,13.66,0,0,0,12,7.64c6.2.3,7.68,3.11,4.82,8.84a36.15,36.15,0,0,1-50.65,15.31c-1.58-.91-3.17-1.79-5-2.81-3.65,12-12.78,17.91-23.92,21.64,1.2,10.12,3.23,18.73,12.39,25.44,18.45,13.53,38.21,24.74,57.92,36.17,23.82,13.82,47,28.55,65.2,49.72,15.39,17.94,25.63,38.78,33,61.12a6.79,6.79,0,0,1,.06,2c-78.22,55.5-179.21,94.5-268.82,94.5C189.91,745.55,63.23,690.55,22.45,651.05Zm37-361.89c2,22.18,3.42,44.44,6.14,66.53,3.16,25.67,9.31,50.65,20.64,74.17,22.12,45.92,58.44,71.44,109.39,72.55,57.25,1.25,102.88-23.08,137-68.93,14.88-20,24.32-42.73,32-66.27,2-6.19,4.59-6.73,9-2a25.19,25.19,0,0,0,18.5,8.48,43.21,43.21,0,0,0,28.34-9.44c21.53-17,31.28-39.79,29.79-66.94-.65-11.83-5.55-22.49-16.53-28.72-13.06-7.41-30.45-3.12-40.69,9.8-4.23,5.34-7.73,11.26-12.1,16.48-2,2.34-5.05,4.68-7.93,5.15-8.1,1.33-13.05-4-12.59-13.11.54-10.47,1.38-20.93,2.37-31.36a15.26,15.26,0,0,0-4.22-12.7c-8.54-9.25-13.37-20.21-13.72-32.91-.19-6.66.14-13.33-.21-20a6.39,6.39,0,0,0-3-4.67C306.94,170,271,159.34,233.36,155c-34-4-68.16-4.8-102.16-.46-17.26,2.2-34.23,6.65-51.33,10.07-2.8.56-4.77,1.78-5.42,4.91-1.56,7.49-3.53,14.89-5,22.38A531.48,531.48,0,0,0,59.42,289.16Zm359.27-73.7,2-.62c0-8.78-.06-17.57,0-26.35.2-26.78-2.22-53.15-12.09-78.38C400.68,89.82,389.4,71.65,373.22,57c-26.55-24.12-58.37-36.69-93.71-40.34-38.34-4-76.18-1.22-112.81,11.6C129.4,41.28,99.55,63.67,80.33,98.93c-9.54,17.52-15.44,36.22-18.66,56.57,2.63-.75,4.69-1.24,6.69-1.91A296.52,296.52,0,0,1,160,138.3c23.27-.22,46.56,1.51,69.85,2.26,1.38,0,3.86-.65,4-1.39,1.6-7.56,2.82-15.21,4.2-23.1-25.77-4-50.85-3.72-75.9-1.49-13.73,1.22-27.34,3.64-41,5.45-5.14.69-6.77-1.28-4.6-5.87a134.39,134.39,0,0,1,7.56-14c12.32-19.74,29.3-32.75,52.78-36.58a149,149,0,0,1,42.75-.49c24.79,3.09,47.47,23.35,51.71,47,.78,4.35,2.66,6.43,6.72,7.86,9.35,3.29,11.8,7.91,10.24,17.61-.81,5-1.54,10-2.29,14.94C334.88,163.57,379.33,184.29,418.69,215.46ZM359.64,414.05c-39.95,73.76-101.82,109.24-188.09,100.22,0,1.3,0,2.93,0,4.57.15,7.61,1.22,15.33.29,22.81-2.28,18.24,6.34,27.57,18.68,33.38,26.81,12.63,54.77,10.67,82.59,4.26,24.86-5.73,47-17.47,66.85-33.42,11.84-9.49,21.75-20.53,28.11-34.49a11.77,11.77,0,0,0,.31-9.49c-2.08-5.92-4.3-12.07-4.75-18.25C361.9,460,360.86,436.25,359.64,414.05Zm68.69-162.37c32.86,12.38,37.17,38.21,33.9,67.94,10,.95,19.56,1.66,28.79-2.32,9.41-4.05,11.05-9.07,5.36-17.48-17.23-25.46-41.26-44-64.79-63.9C430.41,241.63,429.35,246.76,428.33,251.68ZM46.69,269a17.76,17.76,0,0,0-11.33,7.36c-5.66,7.7-7.48,16.57-7.92,25.86-.85,17.73,1.71,34.68,12.94,49.11,3.21,4.12,7.88,7.11,12.22,10.92C50.58,330.44,48.65,300,46.69,269ZM275.91,149.38c1.25-6.63,2.53-12.77,3.48-19,.16-1.07-.8-3.11-1.69-3.43-9.44-3.32-19-6.39-28.74-9.62-1.53,9.26-2.89,17.51-4.28,26Z"/><path d="M404.06,182c1.72-3.16,5.16-3.63,7.12-.29,2.55,4.36,5.25,9.15,5.87,14,2.14,16.55-12.09,35.6-28.45,39.09-3,.64-6.05,1-9.31,1.6,3.78,14.46,1.95,27.22-9.94,37-10.55,8.67-22.54,10.63-36,7.64l43.94-89.65C388.1,196.17,398.31,192.64,404.06,182Z"/><path d="M405.39,314.06c8.33,2.77,13.36,7.83,12.86,16.86A24.84,24.84,0,0,1,402,352.41c-1.24.42-2.79,1-3.86.59-1.67-.64-3.72-1.77-4.31-3.23-.42-1,.95-3.29,2.1-4.41,3.3-3.2,7.51-5.64,10.24-9.24,4.24-5.58,1.76-10.63-5.16-12-7.16-1.37-8.45-3.55-6.48-10.73,3.51-12.76,11.89-21.28,23.48-26.94a19.92,19.92,0,0,1,6.65-1.92c3-.3,6.74-1.08,7.78,3.24,1,4-2.27,5.08-5.09,6.12A37.19,37.19,0,0,0,405.39,314.06Z"/></svg>