<?xml version="1.0" encoding="UTF-8"?>
<svg id="Capa_1" data-name="Capa 1" xmlns="http://www.w3.org/2000/svg" xmlns:xlink="http://www.w3.org/1999/xlink" viewBox="0 0 784 617">
  <defs>
    <style>
      .cls-1 {
        fill: #fd7b03;
      }

      .cls-1, .cls-2, .cls-3, .cls-4, .cls-5, .cls-6, .cls-7, .cls-8, .cls-9, .cls-10, .cls-11, .cls-12, .cls-13, .cls-14, .cls-15, .cls-16, .cls-17, .cls-18, .cls-19, .cls-20, .cls-21, .cls-22, .cls-23 {
        stroke: #000;
      }

      .cls-1, .cls-4, .cls-5, .cls-6, .cls-7, .cls-8, .cls-9, .cls-10, .cls-24, .cls-11, .cls-12, .cls-25, .cls-13, .cls-14, .cls-15, .cls-16, .cls-17, .cls-26, .cls-18, .cls-19, .cls-20, .cls-21, .cls-22, .cls-27, .cls-23 {
        stroke-miterlimit: 10;
      }

      .cls-1, .cls-4, .cls-6, .cls-7, .cls-8, .cls-10, .cls-11, .cls-13, .cls-15, .cls-16, .cls-17, .cls-18, .cls-19, .cls-20, .cls-22, .cls-23 {
        stroke-width: .5px;
      }

      .cls-28 {
        opacity: .43;
      }

      .cls-28, .cls-29 {
        fill: #e89665;
      }

      .cls-2, .cls-3, .cls-6, .cls-9, .cls-10, .cls-24, .cls-11, .cls-13, .cls-15, .cls-17, .cls-26, .cls-30, .cls-19, .cls-21 {
        stroke-linecap: round;
      }

      .cls-2, .cls-3, .cls-9, .cls-24, .cls-25, .cls-17, .cls-26, .cls-30, .cls-21, .cls-27, .cls-23 {
        fill: none;
      }

      .cls-2, .cls-3, .cls-30 {
        stroke-linejoin: round;
      }

      .cls-2, .cls-25 {
        stroke-width: 4px;
      }

      .cls-3 {
        stroke-width: 11px;
      }

      .cls-4 {
        fill: #fff;
      }

      .cls-5 {
        fill: #2e3e5a;
      }

      .cls-5, .cls-12, .cls-14, .cls-27 {
        stroke-width: .75px;
      }

      .cls-6 {
        fill: #e7dedb;
      }

      .cls-7 {
        fill: #3f4d68;
      }

      .cls-8, .cls-13, .cls-31 {
        fill: #39adef;
      }

      .cls-32, .cls-19 {
        fill: #010100;
      }

      .cls-9 {
        stroke-width: 63px;
      }

      .cls-10 {
        fill: #efefef;
      }

      .cls-24 {
        stroke-width: 38px;
      }

      .cls-24, .cls-27 {
        stroke: #39adef;
      }

      .cls-11, .cls-18, .cls-33 {
        fill: #f2b67d;
      }

      .cls-12 {
        fill: #c1cacc;
      }

      .cls-25 {
        stroke: #787878;
      }

      .cls-14 {
        fill: #f5f9fc;
      }

      .cls-34 {
        fill: #787878;
      }

      .cls-15 {
        fill: #f7ecec;
      }

      .cls-16 {
        fill: #0373ab;
      }

      .cls-35 {
        fill: #fc79a1;
      }

      .cls-26 {
        stroke: #3f4d68;
        stroke-width: 62px;
      }

      .cls-36 {
        clip-path: url(#clippath);
      }

      .cls-30 {
        stroke: #f2b67d;
        stroke-width: 10px;
      }

      .cls-20 {
        fill: #c4a59a;
      }

      .cls-37 {
        fill: #fcfcfe;
      }

      .cls-21 {
        stroke-width: 39px;
      }

      .cls-22 {
        fill: #161413;
      }
    </style>
    <clipPath id="clippath">
      <path class="cls-23" d="M586.42,191.58s8.71,15.45-5.47,20.43c-14.18,4.97-33.33-4.23-32.7-18.27,0,0,34.81,1.58,38.17-2.15Z"/>
    </clipPath>
  </defs>
  <path class="cls-34" d="M601.82,224.28h-16.65c-4.87,0-8.81-3.63-8.81-8.12l-1.86-17.25c0-4.93,4.37-8.92,9.77-8.92h18.46c5.4,0,9.77,3.99,9.77,8.92l-1.86,17.25c0,4.48-3.95,8.12-8.81,8.12Z"/>
  <path class="cls-37" d="M597.5,204.64c0-2.21-1.79-4-4-4s-4,1.79-4,4c0,1.47,.81,2.75,1.99,3.44l-1.28,5.56h6.57l-1.28-5.56c1.19-.69,1.99-1.97,1.99-3.44Z"/>
  <path class="cls-25" d="M604,193v-10.5c0-5.8-4.7-10.5-10.5-10.5h0c-5.8,0-10.5,4.7-10.5,10.5v10.5"/>
  <circle class="cls-14" cx="611.5" cy="569.5" r="10"/>
  <path class="cls-15" d="M392.98,298.5h-18.97c-3.4,0-6.22,2.62-6.48,6h0c-.29,3.77,2.7,7,6.48,7h18.97c3.78,0,6.77-3.22,6.48-7h0c-.26-3.39-3.08-6-6.48-6Z"/>
  <g>
    <polyline points="227.77 362.33 233 335.5 213 335.5 208.06 365.84"/>
    <polyline class="cls-20" points="208.06 365.84 179.33 580.5 192.67 580.5 227.77 362.33"/>
  </g>
  <g>
    <polyline points="370.27 365.84 365.33 335.5 345.33 335.5 350.56 362.33"/>
    <polyline class="cls-20" points="350.56 362.33 385.66 580.5 399 580.5 370.27 365.84"/>
  </g>
  <rect class="cls-12" x="607.5" y="522.5" width="9" height="49" rx="4.5" ry="4.5"/>
  <rect class="cls-12" x="588.49" y="505.52" width="9" height="69.98" rx="4.5" ry="4.5" transform="translate(555.88 -261) rotate(45)"/>
  <rect class="cls-12" x="632.49" y="505.52" width="9" height="69.98" rx="4.5" ry="4.5" transform="translate(1469.61 472.28) rotate(135)"/>
  <path class="cls-12" d="M610.5,411.5h9v127.5c0,2.48-2.02,4.5-4.5,4.5h0c-2.48,0-4.5-2.02-4.5-4.5v-127.5h0Z"/>
  <rect class="cls-12" x="652.5" y="287.5" width="9" height="94" rx="4.5" ry="4.5"/>
  <g>
    <path class="cls-9" d="M548.22,367.43s-95.39,22.05-118.1,44.28c-21.41,20.96-55.39,89.75-55.39,89.75"/>
    <path class="cls-26" d="M548.22,367.43s-95.39,22.05-118.1,44.28c-21.41,20.96-55.39,89.75-55.39,89.75"/>
  </g>
  <g>
    <polyline class="cls-21" points="576.5 270.5 518.5 287.5 433.5 276.5"/>
    <polyline class="cls-24" points="576.5 270.5 518.5 287.5 433.5 276.5"/>
  </g>
  <ellipse class="cls-5" cx="610" cy="392.25" rx="69.5" ry="26.25"/>
  <ellipse class="cls-5" cx="610" cy="386.92" rx="69.5" ry="20.92"/>
  <circle class="cls-16" cx="421" cy="274" r="17.5"/>
  <ellipse class="cls-11" cx="411.5" cy="274.25" rx="17.5" ry="13.25"/>
  <g>
    <polyline class="cls-3" points="400 273.12 395 280 395 286"/>
    <polyline class="cls-30" points="400 273.12 395 280 395 286"/>
  </g>
  <g>
    <path class="cls-3" d="M407,274.12s-4.15,1.89-7,8.88c-1.19,2.92,.83,5.05,0,8"/>
    <path class="cls-30" d="M407,274.12s-4.15,1.89-7,8.88c-1.19,2.92,.83,5.05,0,8"/>
  </g>
  <g>
    <path class="cls-3" d="M414,275.12s-.15,2.89-3,9.88c-1.19,2.92,.83,5.05,0,8"/>
    <path class="cls-30" d="M414,275.12s-.15,2.89-3,9.88c-1.19,2.92,.83,5.05,0,8"/>
  </g>
  <g>
    <path class="cls-3" d="M419,277.93s1.84,1.38,4.29,4.72c1.02,1.4,1,1.94,1.71,3.35"/>
    <path class="cls-30" d="M419,277.93s1.84,1.38,4.29,4.72c1.02,1.4,1,1.94,1.71,3.35"/>
  </g>
  <polygon class="cls-33" points="399.5 279.5 419.5 281.5 428 278 418.5 267.5 400.5 266.5 397.5 268.5 399.5 279.5"/>
  <rect class="cls-5" x="572.76" y="224" width="147.24" height="99" rx="6.4" ry="6.4"/>
  <rect class="cls-5" x="566" y="224" width="147.24" height="99" rx="4.14" ry="4.14"/>
  <g>
    <path class="cls-9" d="M582.62,369.83s-77.41,29.04-100.62,53.17c-19.63,20.41-35,85-35,85"/>
    <path class="cls-26" d="M582.62,369.83s-77.41,29.04-100.62,53.17c-19.63,20.41-35,85-35,85"/>
  </g>
  <path class="cls-32" d="M507.6,311.5c-4.24,8.59,19.39,28.9,52.77,45.36,33.38,16.46,57.84,31.8,68.11,14.23,4.84-8.27-19.39-28.9-52.77-45.36-33.38-16.46-63.88-22.83-68.11-14.23Z"/>
  <path class="cls-7" d="M523.5,369.5c-7-19,3.56-30.59,3.56-30.59,80.47-35.64,97.22,34.17,97.22,34.17l-7.74,9.48c-8.56,10.47-20.37,17.8-33.56,20.82-5.64,1.29-9.95,2.49-9.95,2.49"/>
  <path class="cls-13" d="M618.61,224.13s17.72,3.09,26.25,29.83c8.54,26.74-16.78,112.68-16.78,112.68l-57.1-18.13-49.55-17.15s-10.14-45.45,.37-71.8c10.51-26.35,96.8-35.43,96.8-35.43Z"/>
  <g>
    <path class="cls-13" d="M627.99,263.51s52.89-11.37,10.48-71.94c-42.41-60.57-101.24,24-101.24,24,0,0-9.93,16.14-.16,30.28"/>
    <path class="cls-32" d="M599.3,237.23s32.48-6.93,32.25-24.44c-.23-17.5-2.25-29.04-17.41-35.87-15.16-6.84-30.2-2-30.2-2,0,0-32.91,23.16-35.18,37.67-2.27,14.51-14.54,17.06-2.07,23.28l25.76,1.3,26.85,.07Z"/>
    <path class="cls-13" d="M606.33,240.7s-31.95-19.92-67.33-1.36"/>
  </g>
  <g>
    <path class="cls-11" d="M533.02,181.79s1.89-35.27,6.14-43.3,16.12-19.24,28.79-21.71c12.67-2.47,40.64,14.39,48.48,27.34,7.84,12.94,10.72,22.96,10.72,22.96,0,0,15.06,45.75-37.69,63.47-58.46,19.63-56.44-48.76-56.44-48.76Z"/>
    <circle class="cls-4" cx="554.8" cy="168.93" r="13.75"/>
    <circle class="cls-4" cx="579.74" cy="167.08" r="13.75"/>
    <ellipse cx="550.09" cy="169.54" rx="3" ry="4" transform="translate(-11.07 41.31) rotate(-4.26)"/>
    <ellipse cx="573.02" cy="167.83" rx="3" ry="4" transform="translate(-10.88 43.01) rotate(-4.26)"/>
    <g>
      <path class="cls-28" d="M616.53,187.47l1.82,.55s-1.76,1.05-1.82-.55Z"/>
      <path class="cls-29" d="M552.61,126.73c16.8-3.26,26.36-1.96,26.36-1.96,0,0-9.93-6.28-4.94-6.65s15.73,8.02,15.73,8.02c0,0,12.77,.69,18.63,3.86,5.86,3.17,14.48,10.05,14.48,10.05,0,0,6.93-.01,9.15,2.83s-5.83,2.44-5.83,2.44c0,0,6.98,4.26,7,8.89,.02,4.63-.87,26.26-.87,26.26,0,0-10.88-4.71-14.35,2.57-1.12,2.34-1.47,3.68-1.44,4.44l-11.52-3.47s-1.04-13.96,3.65-18.32c0,0-9.35-2.31-11.29-9.19-1.36-4.81-1.11-9.97-.83-12.64-3.41,1.5-8.64,3.45-11.84,3.06-4.04-.5-1.37-5.34-.13-7.26-.37-.07-.74-.14-1.12-.21-2.45,.77-7.57,2.11-15.15,2.68-9.26,.69-5.01-4.27-3.46-5.83-.16-.02-.32-.05-.49-.07-3.34,1.32-14.42,5.46-18.75,4.09-.33-.1-.6-.23-.82-.38l7.83-13.18Z"/>
    </g>
    <path class="cls-22" d="M536.25,152.02s-.98,11.1-3.2,8.26c-1.36-1.75-1.89-6.59-2.1-10.06-.14-2.35,.84-4.62,2.64-6.13l1.19-.99s-9.66,.16-8.04-2.69,10.92-12.57,27.72-15.82c16.8-3.26,26.36-1.96,26.36-1.96,0,0-9.93-6.28-4.94-6.65s15.73,8.02,15.73,8.02c0,0,12.77,.69,18.63,3.86s14.48,10.05,14.48,10.05c0,0,6.93-.01,9.15,2.83s-5.83,2.44-5.83,2.44c0,0,6.98,4.26,7,8.89s-.87,26.26-.87,26.26c0,0-10.88-4.71-14.35,2.57s.37,4.99,.37,4.99l-13.34-4.02s-1.04-13.96,3.65-18.32c0,0-9.35-2.31-11.29-9.19s-.59-14.5-.59-14.5c0,0-41.65-8.43-47.56-6.99,0,0-13.19,14.02-14.82,19.15Z"/>
    <path class="cls-22" d="M551.3,129.33s-8.99,7.19-3.86,8.81,19.72-4.48,19.72-4.48c0,0-7.99,7.11,2.98,6.3s16.8-3.26,16.8-3.26c0,0-5.46,7.43-.4,8.05s15.2-4.64,15.2-4.64"/>
    <path class="cls-8" d="M634.17,178.32s14.87-29.19-6.85-51.63c-21.73-22.45-56.89,.12-56.89,.12,0,0,24.91,1.26,44.73,18.33,19.82,17.08,19.02,33.18,19.02,33.18Z"/>
    <path class="cls-16" d="M530.81,136.88s-14.79-37,8.7-44.77,53.94,24.06,67.68,47.1c0,0-26.27-16.09-52.05-12.17s-24.34,9.83-24.34,9.83Z"/>
    <path class="cls-23" d="M607.19,139.21c.2-17.56,14.16-17.42,14.16-17.42"/>
    <g>
      <path class="cls-18" d="M612.86,184.42s.9-12.6,10.67-13.83,17.98,11.2,12.11,21.66-10.78,11.83-16.91,10.28"/>
      <path class="cls-29" d="M624.45,185.26s4.71,10.48-7.44,8.38l-.63-1.61s1.83-6.34,2.41-6.97l5.65,.2Z"/>
      <path class="cls-23" d="M629.46,178.67s-10.23-2.75-13.41,15.04"/>
      <path class="cls-23" d="M618.58,185.49s8.78-1.66,10.08,2.26"/>
    </g>
    <path class="cls-2" d="M588.89,149.68s-11.67-6.25-17.21,.19"/>
    <path class="cls-2" d="M561.97,151.68s-11.67-6.25-17.21,.19"/>
    <g>
      <g class="cls-36">
        <rect class="cls-19" x="534.59" y="192.11" width="56.92" height="25.11" transform="translate(1139.74 366.96) rotate(175.74)"/>
        <path class="cls-35" d="M578.43,200.02c6.88-.51,12.66,1.75,12.91,5.06,.25,3.3-5.14,6.4-12.02,6.91-6.88,.51-12.66-1.75-12.91-5.06s5.14-6.4,12.02-6.91Z"/>
        <path class="cls-10" d="M557.96,198.19s4.39,3.48-1.26,3.33-6.97-2.85-7.26-6.74l-.19-2.56s8.29-1.4,16.64-2.02,22.43,.57,22.43,.57c0,0,4.56,8.61,3.1,11.52,0,0-22.37-7.29-36.63-3.43"/>
        <path class="cls-10" d="M588.24,209.69s-12.23-3.47-26.84-3.73c-18.16-.32-8.33,11.61-8.33,11.61l27-2.94,8.18-4.95Z"/>
      </g>
      <path class="cls-23" d="M586.42,191.58s8.71,15.45-5.47,20.43c-14.18,4.97-33.33-4.23-32.7-18.27,0,0,34.81,1.58,38.17-2.15Z"/>
    </g>
    <path class="cls-18" d="M562.29,183.38s-7.68-4.66-15.03-.1"/>
    <path class="cls-18" d="M574.98,180.72s-6.19-9.07-13.17-8.55-1.1,12.12-1.1,12.12"/>
    <path class="cls-18" d="M588.22,181.45s-7.68-4.66-15.03-.1"/>
  </g>
  <path class="cls-17" d="M569.05,244.16s-34.43,44.78-26.55,94.34"/>
  <g>
    <polyline class="cls-21" points="631.5 270.5 573.5 287.5 488.5 276.5"/>
    <polyline class="cls-24" points="631.5 270.5 573.5 287.5 488.5 276.5"/>
  </g>
  <circle class="cls-16" cx="476" cy="274" r="17.5"/>
  <circle class="cls-11" cx="466.5" cy="278.5" r="17.5"/>
  <rect class="cls-1" x="145" y="311" width="354.5" height="24" rx="4.13" ry="4.13"/>
  <path class="cls-1" d="M684.16,335h-194.32c-4.33,0-7.84-3.51-7.84-7.84v-8.32c0-4.33,3.51-7.84,7.84-7.84h194.32c4.33,0,7.84,3.51,7.84,7.84v8.32c0,4.33-3.51,7.84-7.84,7.84Z"/>
  <g>
    <polyline class="cls-3" points="455 273.12 446.5 278.5 445.5 286.5"/>
    <polyline class="cls-30" points="455 273.12 446.5 278.5 445.5 286.5"/>
  </g>
  <g>
    <path class="cls-3" d="M462,274.12s-2.15,2.89-5,9.88c-1.19,2.92-1.17,4.05-2,7"/>
    <path class="cls-30" d="M462,274.12s-2.15,2.89-5,9.88c-1.19,2.92-1.17,4.05-2,7"/>
  </g>
  <g>
    <path class="cls-3" d="M469,275.12s-2.15,2.89-5,9.88c-1.19,2.92-1.17,4.05-2,7"/>
    <path class="cls-30" d="M469,275.12s-2.15,2.89-5,9.88c-1.19,2.92-1.17,4.05-2,7"/>
  </g>
  <polygon class="cls-33" points="454.5 279.5 474.5 281.5 475.5 275.5 473.5 267.5 455.5 266.5 452.5 268.5 454.5 279.5"/>
  <g>
    <path class="cls-4" d="M430,536.24l-7.86-18.36c-1.4,1.23-3.82,3.27-6.77,5.47l8.87,17.76c1.9-1.34,3.88-3.06,5.76-4.88Z"/>
    <path class="cls-8" d="M437.33,528.38c-1.21-1.94-7.66-11.74-13.86-11.67,0,0-.48,.44-1.33,1.18l7.86,18.36c2.91-2.79,5.57-5.8,7.33-7.86Z"/>
    <path class="cls-4" d="M422.52,542.23c.57-.33,1.14-.7,1.73-1.11l-8.87-17.76c-2.29,1.72-4.9,3.53-7.61,5.14,1.4,4.17,3.87,11.23,6.38,16.81,2.91-.52,5.83-1.6,8.38-3.08Z"/>
    <path class="cls-16" d="M479.43,515.86s-4.19,13.82-24.52,14.74c-1.48,1.98-2.35,4.76,.71,7.49,4.23,3.76,17.4-3.44,24.01-7.47,2.23-2.99,8.81-12.85-.2-14.75Z"/>
    <path class="cls-4" d="M373.97,552.02l-2.42,5.31c1.32,9.27,8.94,17.04,19.5,19.87l9.01,2.42,77.2-1.66,.42-8.49c-16.02,5.04-49.74,3.64-57,4.21-8.98,.7-38.94,3.05-46.71-21.65Z"/>
    <path class="cls-8" d="M455.62,538.09c-3.07-2.73-2.19-5.51-.71-7.49-4.83,.22-10.56-.29-17.37-1.89,0,0-.07-.12-.21-.33-1.75,2.07-4.42,5.07-7.33,7.86-1.87,1.82-3.85,3.54-5.76,4.88-.59,.41-1.16,.78-1.73,1.11-2.55,1.48-5.47,2.56-8.38,3.08-5.51,1.01-10.96,0-13.7-4.13-2-3.01-2.01-6.14-1.46-8.59-.79,.24-1.58,.43-2.33,.56-11.16,1.96-21.75,16.82-21.75,16.82l-.93,2.05c7.77,24.71,37.73,22.36,46.71,21.65,7.26-.57,40.98,.83,57-4.21l1.28-37.99s.26-.32,.67-.86c-6.61,4.03-19.79,11.23-24.01,7.47Z"/>
    <path class="cls-4" d="M400.45,541.18c2.74,4.13,8.19,5.14,13.7,4.13-2.5-5.58-4.98-12.64-6.38-16.81-2.92,1.74-5.95,3.23-8.78,4.09-.54,2.45-.54,5.58,1.46,8.59Z"/>
  </g>
  <rect class="cls-6" x="259.5" y="120.5" width="196" height="142" rx="6.4" ry="6.4"/>
  <rect class="cls-6" x="250.5" y="120.5" width="196" height="142" rx="4.14" ry="4.14"/>
  <g>
    <g>
      <path class="cls-8" d="M375.86,547.91s12.59-19.93,6.74-29.65c-5.85-9.72-12.6-13.61-12.6-13.61l-8.93-2.51s-3.52-.58-7.55-4.34-13.73-21.21-32.82-21.47-20.76,13.11-20.76,13.11"/>
      <path class="cls-4" d="M298.02,506.71s-1.71-12.48,1.13-18.58,9.27-9.46,9.27-9.46c4.87-.63,18.75,3.2,29.27,11.88s14.01,25.77,21.44,31.24c15.84,11.66,14.42,15.16,17.41,23.07,1.69,4.47-12.08,15.21-12.08,15.21"/>
      <path class="cls-4" d="M354.73,528.41s-20.66-29.94-29.49-34.34-20.12-9.96-24.53-5.55c-4.41,4.42-8.01,23.36,11.6,39.81s17.53,11.52,28.18,26.3c10.66,14.78,18.63,9.1,23.97,5.44s10.27-10.15-9.74-31.66Z"/>
      <line class="cls-4" x1="354.73" y1="528.41" x2="330.67" y2="542.88"/>
    </g>
    <path class="cls-16" d="M376.03,515.93s.88,13.01,6.62,14.45,6.35-3.03,6.35-3.03c0,0-6.44-17.18-9.71-19.15s-3.26,7.73-3.26,7.73Z"/>
  </g>
  <g>
    <path class="cls-31" d="M350.43,150.09s-4.06-2.18-6.56,4.84-7.67,18.02,3.28,19.88c10.95,1.86,11.05-9.35,6.99-15.12,0,0,.66-7.42-3.71-9.6Z"/>
    <line class="cls-27" x1="350.43" y1="150.09" x2="355.27" y2="144.64"/>
    <path class="cls-31" d="M352.85,147.36s5.71-1.47,7.15,4.22c0,0-6.38,1.93-7.15-4.22Z"/>
  </g>
  <rect class="cls-6" x="305.5" y="189.5" width="80" height="56" rx="4.14" ry="4.14"/>
  <polygon points="373 263 301.5 262.5 317.5 212 377 212 373 263"/>
  <polygon class="cls-6" points="350.5 305.5 288.5 305.5 314.5 212 376.5 212 350.5 305.5"/>
  <path class="cls-15" d="M525.86,298h-120.71c-2.96,0-5.58,1.91-6.48,4.72l-2.66,8.28h139l-2.66-8.28c-.91-2.81-3.52-4.72-6.48-4.72Z"/>
  <rect class="cls-6" x="306.5" y="305.5" width="92" height="5.5"/>
  <rect class="cls-6" x="270.5" y="305.5" width="92" height="5.5"/>
  <g>
    <polyline points="503.77 362.33 509 335.5 489 335.5 484.06 365.84"/>
    <polyline class="cls-20" points="484.06 365.84 455.33 580.5 468.67 580.5 503.77 362.33"/>
  </g>
  <line class="cls-20" x1="743.32" y1="580.43" x2="70.3" y2="580.43"/>
  <circle class="cls-14" cx="566.5" cy="569.5" r="12"/>
  <circle class="cls-14" cx="663.5" cy="569.5" r="12"/>
  <g>
    <polyline points="648.27 365.84 643.33 335.5 623.33 335.5 628.56 362.33"/>
    <polyline class="cls-20" points="628.56 362.33 663.66 580.5 677 580.5 648.27 365.84"/>
  </g>
</svg>