<?xml version="1.0" encoding="UTF-8"?>
<svg id="Capa_1" data-name="Capa 1" xmlns="http://www.w3.org/2000/svg" viewBox="0 0 256 256">
  <defs>
    <style>
      .cls-1 {
        fill: #8bc74b;
      }
    </style>
  </defs>
  <g>
    <path class="cls-1" d="M125.92,226.56c-10.68-3.75-19.63-10.71-29.52-15.92-.89-.47-2.25-.93-2.09-2.07,.14-.99,1.52-1.13,2.45-1.42,3.03-.96,5.93-2.25,8.65-3.86,1.31-.78,2.36-.68,3.62,.06,5.41,3.18,10.89,6.23,16.26,9.47,1.66,1,3,.97,4.64,.04,22.32-12.64,44.66-25.23,67-37.84,.49-.27,.95-.6,1.47-.81,2.22-.88,2.85-2.48,2.84-4.84-.07-25.63-.07-51.25-.01-76.88,0-2.05-.63-3.3-2.46-4.32-22.92-12.84-45.81-25.73-68.68-38.67-1.85-1.05-3.27-1.05-5.14,.02-22.89,13.02-45.82,25.97-68.77,38.88-1.63,.92-2.25,2.02-2.25,3.86,.04,25.87,.05,51.75,0,77.62,0,2,.66,3.17,2.43,4.13,5.73,3.11,11.36,6.4,17.05,9.59,3.49,1.95,7.13,3.23,11.22,2.35,3.88-.83,6.7-3.97,7.03-7.92,.08-.99,.09-1.99,.09-2.98,.01-25.13,.02-50.26,.04-75.38,0-3.72,.14-3.85,3.93-3.85,2.24,0,4.48-.03,6.72,.01,1.87,.03,2.55,.73,2.58,2.63,.03,2.3,0,4.6,0,6.9,0,23.88-.02,47.77,0,71.65,0,2.56-.2,5.1-.86,7.57-2.27,8.59-8.44,13.63-17.4,14.37-6.7,.55-12.95-.84-18.81-4.13-6.28-3.52-12.62-6.94-18.91-10.47-5.14-2.89-7.82-7.3-7.82-13.25,0-26.56,0-53.12,0-79.68,0-5.94,2.58-10.42,7.71-13.33,23.56-13.35,47.13-26.68,70.72-39.97,5.15-2.9,10.47-2.98,15.65-.07,23.66,13.29,47.3,26.62,70.93,39.97,5.2,2.94,7.78,7.46,7.78,13.48-.02,26.43-.02,52.87,0,79.3,0,6.03-2.65,10.54-7.82,13.47-23.51,13.32-47.06,26.56-70.57,39.87-2.12,1.2-4.48,1.59-6.71,2.42h-2.99Z"/>
    <path class="cls-1" d="M145.62,93.71c7.65-.16,14.59,.48,21.28,2.99,9.45,3.55,14.19,10.6,15.29,20.39,.26,2.34-.43,3.1-2.73,3.11-2.74,.02-5.47-.04-8.21,0-1.26,.02-2.11-.55-2.34-1.7-1.68-8.29-7.35-11.62-15.17-12.27-5.46-.45-10.92-.55-16.34,.5-1.78,.34-3.47,.93-5.04,1.86-3.25,1.92-4.74,5.48-3.77,9.09,.55,2.04,2.17,2.95,3.97,3.59,3.88,1.39,7.94,1.99,11.98,2.63,8.88,1.41,17.89,2.1,26.53,4.84,8.05,2.55,13.47,7.31,13.99,16.3,.52,8.93-2.81,15.86-10.63,20.44-5.02,2.94-10.55,4.34-16.27,4.94-9.59,1.01-19.14,.73-28.43-2.16-8.85-2.75-15.38-7.99-17.45-17.55-.35-1.64-.53-3.31-.55-4.99-.02-1.69,.71-2.59,2.42-2.6,2.86-.02,5.72,0,8.58,0,1.33,0,2.07,.69,2.35,1.95,.05,.24,.06,.49,.1,.74,.93,6.07,4.42,9.81,10.33,11.34,5.85,1.51,11.8,1.54,17.78,1.29,3.98-.16,7.94-.48,11.65-2.13,3.29-1.47,5.49-3.77,5.85-7.53,.36-3.85-.71-5.8-4.23-7.39-3.66-1.65-7.59-2.31-11.52-2.91-7.3-1.12-14.72-1.39-21.96-3-2.67-.59-5.28-1.37-7.82-2.42-10.89-4.5-12.81-14.61-10.31-23.26,1.91-6.62,6.71-10.56,12.81-13.12,5.89-2.48,12.1-3.13,17.85-2.96Z"/>
  </g>
  <path d="M214.09,64.09c-25.84-14.6-49.05-27.68-70.97-39.99-10.07-5.66-21.2-5.63-31.34,.08-22.44,12.64-45.59,25.72-70.76,39.99-10.2,5.78-15.82,15.46-15.82,27.25v79.67c0,11.75,5.68,21.41,15.99,27.2,3.26,1.83,6.53,3.63,9.8,5.43,3.04,1.67,6.09,3.35,9.12,5.05,6.12,3.43,12.59,5.46,19.32,6.08,1.45,3.8,4.42,7.46,9.56,9.96l.05,.03c3.02,1.59,6.07,3.45,9.29,5.41,6.47,3.94,13.8,8.41,22.29,11.39l2.57,.9h8.57l2.68-.99c.28-.1,.83-.27,1.36-.42,1.99-.59,4.72-1.4,7.7-3.08,11.18-6.33,22.37-12.64,33.56-18.96,12.34-6.96,24.68-13.93,37.01-20.91,10.28-5.82,15.94-15.56,15.93-27.4-.02-26.43-.02-52.85,0-79.28,0-11.88-5.64-21.62-15.91-27.42Z"/>
  <g>
    <path class="cls-1" d="M125.92,226.56c-10.68-3.75-19.63-10.71-29.52-15.92-.89-.47-2.25-.93-2.09-2.07,.14-.99,1.52-1.13,2.45-1.42,3.03-.96,5.93-2.25,8.65-3.86,1.31-.78,2.36-.68,3.62,.06,5.41,3.18,10.89,6.23,16.26,9.47,1.66,1,3,.97,4.64,.04,22.32-12.64,44.66-25.23,67-37.84,.49-.27,.95-.6,1.47-.81,2.22-.88,2.85-2.48,2.84-4.84-.07-25.63-.07-51.25-.01-76.88,0-2.05-.63-3.3-2.46-4.32-22.92-12.84-45.81-25.73-68.68-38.67-1.85-1.05-3.27-1.05-5.14,.02-22.89,13.02-45.82,25.97-68.77,38.88-1.63,.92-2.25,2.02-2.25,3.86,.04,25.87,.05,51.75,0,77.62,0,2,.66,3.17,2.43,4.13,5.73,3.11,11.36,6.4,17.05,9.59,3.49,1.95,7.13,3.23,11.22,2.35,3.88-.83,6.7-3.97,7.03-7.92,.08-.99,.09-1.99,.09-2.98,.01-25.13,.02-50.26,.04-75.38,0-3.72,.14-3.85,3.93-3.85,2.24,0,4.48-.03,6.72,.01,1.87,.03,2.55,.73,2.58,2.63,.03,2.3,0,4.6,0,6.9,0,23.88-.02,47.77,0,71.65,0,2.56-.2,5.1-.86,7.57-2.27,8.59-8.44,13.63-17.4,14.37-6.7,.55-12.95-.84-18.81-4.13-6.28-3.52-12.62-6.94-18.91-10.47-5.14-2.89-7.82-7.3-7.82-13.25,0-26.56,0-53.12,0-79.68,0-5.94,2.58-10.42,7.71-13.33,23.56-13.35,47.13-26.68,70.72-39.97,5.15-2.9,10.47-2.98,15.65-.07,23.66,13.29,47.3,26.62,70.93,39.97,5.2,2.94,7.78,7.46,7.78,13.48-.02,26.43-.02,52.87,0,79.3,0,6.03-2.65,10.54-7.82,13.47-23.51,13.32-47.06,26.56-70.57,39.87-2.12,1.2-4.48,1.59-6.71,2.42h-2.99Z"/>
    <path class="cls-1" d="M145.62,93.71c7.65-.16,14.59,.48,21.28,2.99,9.45,3.55,14.19,10.6,15.29,20.39,.26,2.34-.43,3.1-2.73,3.11-2.74,.02-5.47-.04-8.21,0-1.26,.02-2.11-.55-2.34-1.7-1.68-8.29-7.35-11.62-15.17-12.27-5.46-.45-10.92-.55-16.34,.5-1.78,.34-3.47,.93-5.04,1.86-3.25,1.92-4.74,5.48-3.77,9.09,.55,2.04,2.17,2.95,3.97,3.59,3.88,1.39,7.94,1.99,11.98,2.63,8.88,1.41,17.89,2.1,26.53,4.84,8.05,2.55,13.47,7.31,13.99,16.3,.52,8.93-2.81,15.86-10.63,20.44-5.02,2.94-10.55,4.34-16.27,4.94-9.59,1.01-19.14,.73-28.43-2.16-8.85-2.75-15.38-7.99-17.45-17.55-.35-1.64-.53-3.31-.55-4.99-.02-1.69,.71-2.59,2.42-2.6,2.86-.02,5.72,0,8.58,0,1.33,0,2.07,.69,2.35,1.95,.05,.24,.06,.49,.1,.74,.93,6.07,4.42,9.81,10.33,11.34,5.85,1.51,11.8,1.54,17.78,1.29,3.98-.16,7.94-.48,11.65-2.13,3.29-1.47,5.49-3.77,5.85-7.53,.36-3.85-.71-5.8-4.23-7.39-3.66-1.65-7.59-2.31-11.52-2.91-7.3-1.12-14.72-1.39-21.96-3-2.67-.59-5.28-1.37-7.82-2.42-10.89-4.5-12.81-14.61-10.31-23.26,1.91-6.62,6.71-10.56,12.81-13.12,5.89-2.48,12.1-3.13,17.85-2.96Z"/>
  </g>
</svg>