<?xml version="1.0" encoding="UTF-8"?>
<svg id="Capa_1" data-name="Capa 1" xmlns="http://www.w3.org/2000/svg" viewBox="0 0 456.52 195.92">
  <defs>
    <style>
      .cls-1 {
        fill: #fff;
      }
    </style>
  </defs>
  <path d="M456.52,20.2v1.19c-.22,.16-.2,.32,0,.48V174.04c-.2,.16-.22,.32,0,.48v1.19c-.64,.08-.5,.66-.59,1.03-.59,2.27-1.47,4.42-2.66,6.45-1.79,3.05-4.11,5.61-6.94,7.71-4.65,3.45-9.97,4.99-15.67,4.99-134.91,.03-269.81,.02-404.72,.03-1.19,0-2.38-.15-3.54-.32-3.35-.48-6.54-1.47-9.49-3.2-2.9-1.7-5.41-3.82-7.47-6.49-2.63-3.43-4.31-7.25-4.98-11.52-.05-.3-.11-.54-.47-.58V22.1c.44-.04,.42-.38,.48-.7,1.06-6.02,3.84-11.06,8.49-15.08C13.88,2.07,19.68,.03,26.08,.03,160.22-.01,294.36,0,428.5,0c1.66,0,3.31-.05,4.97,.2,1.92,.29,3.82,.57,5.67,1.17,4.49,1.44,8.27,3.96,11.35,7.5,1.66,1.91,3.06,4.02,4.06,6.38,.57,1.35,1.04,2.73,1.43,4.15,.09,.32,.03,.75,.53,.8Zm-129.84,110.68c.02,3.14-.27,6.28-1.26,9.31-1.44,4.39-4.36,7.36-8.72,8.91-2.3,.82-4.67,1.23-7.09,1.37-8.47,.51-16.55-.99-24.23-4.64-.63-.3-1.27-.58-1.81-.83-.26,.11-.25,.24-.25,.35,0,6.26,0,12.52-.02,18.78,0,.57,.3,.73,.74,.89,2.93,1.09,5.93,1.98,8.99,2.61,6.29,1.3,12.65,1.58,19.04,1.11,4.4-.32,8.72-1.09,12.89-2.59,8.97-3.21,15.47-9.1,19.2-17.92,1.8-4.28,2.51-8.82,2.97-13.4,.53-5.37,.57-10.76,.61-16.15,.04-5.23-.16-10.46-.3-15.68-.12-4.55-.02-9.11-.22-13.67-.11-2.53-.11-5.07-.19-7.6-.02-.57,.15-.74,.74-.71,1.03,.05,2.05,.08,3.06,.3,1.01,.22,1.02,.19,1.47-.75,2.16-4.54,4.31-9.08,6.46-13.62,.15-.31,.4-.6,.27-1.03-8.11-1.65-16.29-2.79-24.59-2.99-6.39-.15-12.75,.1-19.05,1.27-5.96,1.1-11.67,2.91-16.92,5.99-7.03,4.13-12.13,9.91-14.72,17.68-2.94,8.83-3.02,17.78,0,26.6,2.76,8.09,8.2,13.8,16.23,16.91,4.96,1.92,10.13,2.43,15.41,2.13,3.75-.22,7.37-.98,10.77-2.62,.15-.07,.29-.12,.52-.01ZM78.84,63.7c-.33,.1-.63-.03-.94-.09-1.05-.2-2.09-.46-3.15-.58-6.33-.68-12.59-.29-18.68,1.65-10.89,3.47-18.32,10.57-21.83,21.52-2.46,7.68-2.55,15.51-.76,23.35,2.28,9.96,8.23,16.83,17.66,20.72,5.94,2.45,12.2,3.35,18.56,3.56,8.02,.26,15.99-.43,23.91-1.69,2.07-.33,4.13-.75,6.2-1.07,.62-.1,.81-.36,.75-.93-.02-.16,0-.32,0-.48,0-32.49,0-64.99,0-97.48,0-.28,0-.55,0-.83,0-.29-.14-.44-.43-.44-.28,0-.55,0-.83,0-6.34,0-12.68,0-19.02,0-1.5,0-1.34-.19-1.34,1.31,0,10.07,0,20.13,0,30.2,0,.43,.08,.87-.08,1.29Zm278.18,34.67c0,5.7,.54,9.88,1.79,13.88,3.22,10.32,9.86,17.39,20.22,20.66,8.78,2.77,17.65,2.7,26.4-.18,8.39-2.76,14.52-8.21,18.36-16.18,1.99-4.14,3.1-8.54,3.55-13.11,.58-5.88,.34-11.71-1.25-17.43-3.04-10.92-9.82-18.39-20.73-21.76-8.3-2.56-16.74-2.53-25.05-.03-10.01,3.01-16.88,9.52-20.62,19.3-1.93,5.06-2.65,10.33-2.67,14.84Zm-145.86,1.93c0,10.42,0,20.84,0,31.26,0,.32,.01,.63,0,.95-.02,.35,.15,.51,.49,.51,.2,0,.4,0,.59,0,6.5,0,12.99,0,19.49,0,1.03,0,1.03-.01,1.04-1.03,0-.24,0-.48,0-.71,0-16.05,0-32.09,0-48.14,0-.32,.01-.63,0-.95-.02-.37,.12-.57,.51-.66,.77-.17,1.53-.41,2.3-.59,3.43-.77,6.88-1.09,10.38-.58,3.8,.55,5.94,2.51,6.84,6.25,.43,1.79,.46,3.61,.46,5.43,0,13.27,0,26.54,0,39.81,0,1.1-.23,1.18,1.14,1.17,.08,0,.16,0,.24,0,6.3,0,12.6,0,18.9,0,1.55,0,1.34,.15,1.34-1.31,0-13.47,0-26.94,0-40.41,0-2.54-.02-5.07-.27-7.6-.28-2.89-.76-5.73-2.02-8.38-2.2-4.62-5.8-7.74-10.46-9.71-4.7-1.99-9.67-2.67-14.72-2.83-6.39-.19-12.75,.28-19.06,1.24-5.52,.83-10.97,2.01-16.38,3.42-.61,.16-.9,.38-.82,1.02,.03,.23,0,.47,0,.71,0,10.38,0,20.76,0,31.14Zm-63.18-14.6c.6,0,.94-.3,1.32-.48,7.48-3.59,15.3-5.8,23.65-5.92,1.39-.02,2.77,0,4.14,.32,2.44,.55,3.51,1.74,3.71,4.25,.09,1.1,.06,2.22,.05,3.32-.01,.7,.31,1.58-.16,2.05-.46,.45-1.34,.29-2.05,.36-4.97,.48-9.91,1.18-14.75,2.41-4.05,1.02-7.96,2.39-11.5,4.65-3.62,2.31-6.31,5.38-7.72,9.49-.75,2.19-1.09,4.46-1.13,6.77-.05,2.46,.09,4.91,.67,7.31,1.41,5.83,5.05,9.64,10.6,11.71,3.94,1.48,8.05,2.01,12.23,2.14,5.19,.15,10.37-.08,15.56-.44,5.73-.39,11.44-.99,17.13-1.74,.92-.12,.92-.14,.93-1.11,0-.12,0-.24,0-.36,0-14.54,0-29.08,0-43.63,0-2.93-.14-5.86-.44-8.78-.66-6.45-3.97-10.86-10.05-13.19-3.67-1.41-7.5-1.93-11.4-2.06-4.13-.14-8.24,.08-12.32,.7-6.18,.95-12.09,2.79-17.77,5.39-.59,.27-.71,.61-.7,1.18,.02,2.02,0,4.04,0,6.06,0,3.17,0,6.34,0,9.59Zm-55.71,67.75c.15,.14,.2,.21,.27,.24,6.36,3.03,12.72,6.05,19.07,9.09,.45,.21,.8,.16,1.22-.05,2.32-1.2,4.6-2.47,6.76-3.95,3.26-2.25,6.08-4.94,8.28-8.25,3.6-5.43,5.47-11.46,6.23-17.88,.65-5.48,.82-10.98,.82-16.49,.03-16.84,0-33.68,0-50.52,0-.28-.01-.55,0-.83,.01-.41-.2-.56-.59-.54-.28,.01-.55,0-.83,0-6.22,0-12.44,0-18.66,0-1.7,0-1.53-.24-1.54,1.49-.06,16.64,.13,33.28-.11,49.92-.08,5.39-.33,10.77-1.44,16.07-1.52,7.25-5.12,13.14-11.42,17.24-2.56,1.67-5.24,3.1-8.07,4.46Zm42.66-111.28c0-3.4,0-6.81,0-10.21,0-.92-.02-.94-.89-.94-6.61,0-13.22,0-19.83,0-.88,0-.89,.02-.89,.94,0,6.77,0,13.54,0,20.3,0,.92,.02,.94,.89,.94,6.61,0,13.22,0,19.83,0,.88,0,.89-.02,.89-.94,0-3.36,0-6.73,0-10.09Z"/>
  <path d="M456.52,21.86c-.2-.16-.22-.32,0-.48v.48Z"/>
  <path d="M456.52,174.52c-.22-.16-.2-.32,0-.48v.48Z"/>
  <path class="cls-1" d="M326.68,130.88c-.23-.11-.38-.06-.52,.01-3.4,1.64-7.02,2.41-10.77,2.62-5.28,.31-10.45-.21-15.41-2.13-8.03-3.1-13.46-8.82-16.23-16.91-3.02-8.83-2.93-17.77,0-26.6,2.58-7.77,7.69-13.56,14.72-17.68,5.25-3.08,10.96-4.89,16.92-5.99,6.3-1.17,12.66-1.42,19.05-1.27,8.3,.2,16.48,1.34,24.59,2.99,.13,.42-.12,.72-.27,1.03-2.15,4.54-4.31,9.08-6.46,13.62-.45,.95-.46,.97-1.47,.75-1.01-.22-2.03-.25-3.06-.3-.59-.03-.76,.14-.74,.71,.08,2.53,.08,5.07,.19,7.6,.2,4.55,.1,9.11,.22,13.67,.13,5.23,.34,10.45,.3,15.68-.05,5.39-.08,10.78-.61,16.15-.45,4.58-1.16,9.12-2.97,13.4-3.72,8.82-10.22,14.71-19.2,17.92-4.17,1.49-8.49,2.27-12.89,2.59-6.39,.46-12.75,.19-19.04-1.11-3.07-.63-6.06-1.52-8.99-2.61-.44-.16-.74-.32-.74-.89,.02-6.26,.01-12.52,.02-18.78,0-.11,0-.25,.25-.35,.54,.25,1.18,.53,1.81,.83,7.67,3.64,15.76,5.15,24.23,4.64,2.42-.14,4.79-.56,7.09-1.37,4.36-1.55,7.27-4.52,8.72-8.91,1-3.03,1.28-6.17,1.26-9.31Zm-.24-33.28c0-1.98,.02-3.96,0-5.94-.05-3.56-.14-7.13-.19-10.69,0-.49-.13-.69-.66-.7-3.71-.11-7.36,.2-10.86,1.53-4.89,1.86-8.5,5.02-10.05,10.16-1.45,4.82-1.48,9.71,0,14.52,1.75,5.73,5.72,8.92,11.71,9.59,3.17,.36,6.23-.12,9.27-.98q1.03-.29,1.04-1.33c.04-5.39-.04-10.77-.24-16.16Z"/>
  <path class="cls-1" d="M78.84,63.7c.16-.42,.08-.86,.08-1.29,0-10.07,0-20.13,0-30.2,0-1.5-.15-1.31,1.34-1.31,6.34,0,12.68,0,19.02,0,.28,0,.55,0,.83,0,.29,0,.43,.15,.43,.44,0,.28,0,.55,0,.83,0,32.49,0,64.99,0,97.48,0,.16-.01,.32,0,.48,.06,.57-.13,.83-.75,.93-2.07,.32-4.13,.74-6.2,1.07-7.92,1.26-15.89,1.94-23.91,1.69-6.37-.2-12.62-1.11-18.56-3.56-9.43-3.88-15.38-10.76-17.66-20.72-1.79-7.83-1.7-15.66,.76-23.35,3.51-10.95,10.94-18.05,21.83-21.52,6.09-1.94,12.35-2.33,18.68-1.65,1.06,.11,2.1,.38,3.15,.58,.31,.06,.61,.18,.94,.09Zm.08,34.93c0-5.43,0-10.86,0-16.29,0-1.23,.14-1.08-1.09-1.42-3.17-.88-6.41-1.04-9.66-.54-6.38,.97-10.76,4.42-12.72,10.63-1.47,4.67-1.52,9.45-.3,14.19,1.37,5.32,4.68,8.88,10.02,10.44,4.41,1.28,8.86,.88,13.32,.34,.28-.03,.42-.19,.42-.47,0-.28,0-.55,0-.83,0-5.35,0-10.7,0-16.05Z"/>
  <path class="cls-1" d="M357.02,98.37c.02-4.51,.74-9.78,2.67-14.84,3.74-9.78,10.6-16.29,20.62-19.3,8.32-2.5,16.75-2.53,25.05,.03,10.9,3.36,17.69,10.83,20.73,21.76,1.59,5.72,1.83,11.55,1.25,17.43-.45,4.57-1.55,8.96-3.55,13.11-3.84,7.97-9.96,13.42-18.36,16.18-8.75,2.88-17.62,2.95-26.4,.18-10.36-3.27-17-10.33-20.22-20.66-1.25-4-1.79-8.18-1.79-13.88Zm48.58,.85c.08-1.34-.06-3.04-.24-4.73-.27-2.49-.8-4.91-1.84-7.21-2.36-5.22-6.36-7.71-12.07-7.38-3.36,.19-6.18,1.56-8.34,4.19-1.59,1.93-2.55,4.17-3.15,6.58-1.04,4.16-1.16,8.38-.64,12.62,.37,3.01,1.17,5.88,2.75,8.52,4.27,7.14,13.78,6.93,18.18,2.82,1.72-1.6,2.9-3.54,3.72-5.72,1.13-3,1.5-6.14,1.63-9.68Z"/>
  <path class="cls-1" d="M211.16,100.3c0-10.38,0-20.76,0-31.14,0-.24,.03-.48,0-.71-.08-.64,.21-.86,.82-1.02,5.4-1.41,10.85-2.59,16.38-3.42,6.32-.95,12.67-1.43,19.06-1.24,5.05,.15,10.02,.83,14.72,2.83,4.66,1.97,8.26,5.1,10.46,9.71,1.26,2.65,1.74,5.49,2.02,8.38,.24,2.53,.27,5.06,.27,7.6,0,13.47,0,26.94,0,40.41,0,1.47,.21,1.31-1.34,1.31-6.3,0-12.6,0-18.9,0-.08,0-.16,0-.24,0-1.37,.01-1.14-.06-1.14-1.17,0-13.27,0-26.54,0-39.81,0-1.82-.03-3.64-.46-5.43-.9-3.74-3.04-5.71-6.84-6.25-3.5-.5-6.95-.19-10.38,.58-.77,.17-1.53,.42-2.3,.59-.39,.09-.53,.29-.51,.66,.01,.32,0,.63,0,.95,0,16.05,0,32.09,0,48.14,0,.24,0,.48,0,.71,0,1.02-.01,1.03-1.04,1.03-6.5,0-12.99,0-19.49,0-.2,0-.4,0-.59,0-.34,0-.51-.15-.49-.51,.01-.32,0-.63,0-.95,0-10.42,0-20.84,0-31.26Z"/>
  <path class="cls-1" d="M147.98,85.71c0-3.25,0-6.42,0-9.59,0-2.02,.01-4.04,0-6.06,0-.57,.11-.91,.7-1.18,5.68-2.6,11.59-4.45,17.77-5.39,4.08-.62,8.19-.84,12.32-.7,3.89,.14,7.72,.66,11.4,2.06,6.08,2.33,9.38,6.74,10.05,13.19,.3,2.92,.44,5.85,.44,8.78,0,14.54,0,29.08,0,43.63,0,.12,0,.24,0,.36-.01,.97,0,.99-.93,1.11-5.69,.76-11.4,1.35-17.13,1.74-5.18,.35-10.36,.59-15.56,.44-4.17-.12-8.29-.66-12.23-2.14-5.55-2.08-9.19-5.89-10.6-11.71-.58-2.4-.72-4.85-.67-7.31,.05-2.31,.38-4.58,1.13-6.77,1.41-4.11,4.1-7.18,7.72-9.49,3.55-2.26,7.46-3.63,11.5-4.65,4.85-1.22,9.78-1.93,14.75-2.41,.7-.07,1.59,.1,2.05-.36,.47-.47,.15-1.35,.16-2.05,.02-1.11,.04-2.22-.05-3.32-.2-2.51-1.28-3.7-3.71-4.25-1.36-.31-2.75-.34-4.14-.32-8.35,.12-16.17,2.33-23.65,5.92-.38,.18-.72,.48-1.32,.48Zm33.86,25.11c0-2.1,0-4.2,0-6.29,0-.91-.02-.95-.92-.86-3.03,.31-6.05,.67-9.03,1.35-1.93,.44-3.84,.95-5.57,1.95-2.7,1.55-3.84,3.9-3.39,6.98,.3,2.05,1.38,3.49,3.33,4.26,1.04,.41,2.12,.63,3.23,.7,3.9,.27,7.74-.18,11.58-.75,.59-.09,.78-.34,.77-.93-.03-2.14-.01-4.28-.01-6.41Z"/>
  <path class="cls-1" d="M92.26,153.46c2.83-1.36,5.51-2.8,8.07-4.46,6.3-4.1,9.9-9.99,11.42-17.24,1.11-5.3,1.36-10.68,1.44-16.07,.25-16.64,.05-33.28,.11-49.92,0-1.74-.17-1.49,1.54-1.49,6.22,0,12.44,0,18.66,0,.28,0,.56,.01,.83,0,.39-.02,.6,.13,.59,.54,0,.28,0,.55,0,.83,0,16.84,.02,33.68,0,50.52,0,5.51-.18,11.01-.82,16.49-.76,6.42-2.63,12.45-6.23,17.88-2.2,3.32-5.02,6.01-8.28,8.25-2.15,1.49-4.44,2.75-6.76,3.95-.42,.22-.77,.27-1.22,.05-6.35-3.04-12.72-6.06-19.07-9.09-.07-.03-.12-.1-.27-.24Z"/>
  <path class="cls-1" d="M134.93,42.17c0,3.36,0,6.73,0,10.09,0,.92-.02,.93-.89,.94-6.61,0-13.22,0-19.83,0-.87,0-.89-.02-.89-.94,0-6.77,0-13.54,0-20.3,0-.92,.02-.93,.89-.94,6.61,0,13.22,0,19.83,0,.88,0,.89,.02,.89,.94,0,3.4,0,6.81,0,10.21Z"/>
  <path d="M326.44,97.6c.2,5.39,.28,10.77,.24,16.16q0,1.04-1.04,1.33c-3.03,.86-6.1,1.34-9.27,.98-5.99-.67-9.95-3.86-11.71-9.59-1.47-4.81-1.44-9.7,0-14.52,1.54-5.14,5.16-8.3,10.05-10.16,3.51-1.33,7.15-1.64,10.86-1.53,.53,.02,.66,.21,.66,.7,.05,3.56,.14,7.13,.19,10.69,.03,1.98,0,3.96,0,5.94Z"/>
  <path d="M78.92,98.63c0,5.35,0,10.7,0,16.05,0,.28,0,.55,0,.83,0,.28-.14,.44-.42,.47-4.46,.54-8.91,.95-13.32-.34-5.34-1.56-8.64-5.12-10.02-10.44-1.22-4.74-1.18-9.52,.3-14.19,1.96-6.21,6.34-9.66,12.72-10.63,3.25-.49,6.48-.34,9.66,.54,1.23,.34,1.09,.2,1.09,1.42,0,5.43,0,10.86,0,16.29Z"/>
  <path d="M405.6,99.22c-.14,3.54-.5,6.68-1.63,9.68-.82,2.18-2,4.11-3.72,5.72-4.4,4.11-13.91,4.32-18.18-2.82-1.58-2.63-2.38-5.51-2.75-8.52-.52-4.24-.4-8.46,.64-12.62,.6-2.41,1.56-4.65,3.15-6.58,2.16-2.63,4.98-4,8.34-4.19,5.7-.33,9.71,2.16,12.07,7.38,1.04,2.3,1.57,4.73,1.84,7.21,.18,1.69,.32,3.39,.24,4.73Z"/>
  <path d="M181.84,110.82c0,2.14-.02,4.28,.01,6.41,0,.59-.18,.84-.77,.93-3.84,.57-7.69,1.02-11.58,.75-1.11-.08-2.19-.3-3.23-.7-1.95-.76-3.03-2.2-3.33-4.26-.45-3.08,.69-5.42,3.39-6.98,1.73-1,3.64-1.51,5.57-1.95,2.98-.68,6-1.05,9.03-1.35,.9-.09,.91-.06,.92,.86,0,2.1,0,4.2,0,6.29Z"/>
</svg>