<?xml version="1.0" encoding="UTF-8"?>
<svg id="Capa_1" data-name="Capa 1" xmlns="http://www.w3.org/2000/svg" viewBox="0 0 256 256">
  <defs>
    <style>
      .cls-1 {
        fill: #61dafb;
      }
    </style>
  </defs>
  <path d="M250.14,76.08c-4.86-4.19-11.66-5.28-17.58-2.8-2.86,1.2-5.28,3.06-7.22,5.54-1.97,2.53-3.86,4.46-5.8,5.89-3.22,2.39-6.09,3.09-9.92,2.41-1.91-.34-3.55-1.18-5.15-2.63-2.55-2.31-5.05-4.78-7.69-7.39-.99-.97-1.97-1.95-2.96-2.91-5.53-5.4-10.24-9.19-15.26-12.29-9.25-5.71-19.74-9.06-31.18-9.96-.75-.06-1.5-.13-2.24-.19l-1.25-.11c-.49-.04-.97-.06-1.46-.06h-5.12c-.9,0-1.8,.07-2.69,.22-5.72,.31-11.32,1.24-16.64,2.78-11.35,3.27-20.92,9.32-28.45,17.99-6.15,7.08-10.73,15.52-13.98,25.81-.35,1.12-.68,2.25-1,3.37l-.35,1.23c-.95,3.26-.88,6.65,.09,9.76-1.01,.2-2.02,.42-3.02,.66-14.66,3.52-26.43,11.36-35.01,23.31-4.53,6.32-7.99,13.47-10.57,21.86l-.13,.41c-.2,.64-.4,1.28-.57,1.92-.17,.59-.32,1.19-.46,1.79l-.12,.47c-1.71,6.76,.89,13.88,6.57,17.93,5.68,4.05,13.26,4.2,19.09,.38,2.31-1.51,3.75-3.16,4.65-4.31,1.69-2.15,3.31-3.83,4.93-5.14,3.99-3.22,7.4-3.94,12.16-2.55,1.29,.38,2.75,1.34,4.47,2.95,2.2,2.06,4.36,4.2,6.65,6.46,1.49,1.47,2.98,2.94,4.48,4.4,6.39,6.19,12.81,10.82,19.63,14.16,9.13,4.48,19.14,6.8,30.6,7.11,.81,.02,1.61,.03,2.41,.03,5.61,0,11.07-.53,16.26-1.57,10.66-2.15,19.95-6.53,27.61-13.01,10.57-8.96,17.7-21.19,21.8-37.4,.78-3.1,.64-6.24-.25-9.13,.79-.15,1.58-.29,2.36-.47,14.15-3.22,25.68-10.45,34.28-21.47,5.25-6.73,9.2-14.53,12.09-23.85l.07-.23c.22-.72,.44-1.43,.64-2.15,.16-.58,.31-1.16,.45-1.75l.12-.48c1.59-6.22-.48-12.79-5.34-16.99Z"/>
  <g>
    <path class="cls-1" d="M142.42,68.49c1.21,.11,2.41,.22,3.62,.31,8.46,.66,16.38,3.01,23.63,7.49,4.54,2.8,8.53,6.29,12.33,10,3.68,3.6,7.3,7.27,11.1,10.73,3.85,3.5,8.35,5.83,13.55,6.76,8.47,1.51,16.1-.37,22.97-5.48,3.47-2.58,6.42-5.69,9.07-9.09,.09-.12,.19-.24,.39-.32-.16,.62-.3,1.24-.48,1.86-.18,.65-.38,1.29-.58,1.93-2.06,6.67-4.95,12.93-9.27,18.46-6.35,8.14-14.7,13.11-24.7,15.38-6.73,1.53-13.55,1.84-20.43,1.29-6.81-.55-13.34-2.15-19.5-5.15-5.76-2.81-10.73-6.7-15.31-11.13-3.77-3.65-7.44-7.41-11.27-11-3.29-3.08-6.98-5.62-11.37-6.89-10.62-3.08-20.06-.76-28.4,6.38-2.51,2.15-4.72,4.57-6.75,7.16-.16,.2-.32,.4-.61,.55,.41-1.41,.8-2.83,1.24-4.24,2.3-7.27,5.57-14.01,10.61-19.81,5.5-6.32,12.34-10.52,20.37-12.83,4.52-1.3,9.12-2,13.82-2.18,.28-.01,.55-.1,.83-.15,1.71,0,3.42,0,5.12,0Z"/>
    <path class="cls-1" d="M189.3,148.45c-2.8,11.05-7.42,21.08-16.34,28.64-5.81,4.93-12.59,7.84-20.01,9.34-4.91,.99-9.88,1.35-14.88,1.21-8.22-.22-16.16-1.73-23.61-5.39-5.75-2.82-10.73-6.7-15.31-11.13-3.79-3.67-7.48-7.45-11.33-11.05-3.27-3.06-6.95-5.58-11.31-6.85-10.14-2.95-19.3-.99-27.5,5.62-2.85,2.3-5.34,4.96-7.6,7.84-.17,.22-.35,.44-.63,.63,.16-.62,.3-1.24,.47-1.85,.18-.65,.39-1.29,.58-1.93,1.87-6.07,4.44-11.8,8.15-16.97,6.28-8.76,14.77-14.22,25.21-16.73,6.95-1.67,13.99-2,21.1-1.43,8.43,.68,16.33,2.98,23.57,7.42,4.59,2.82,8.62,6.33,12.46,10.08,3.68,3.59,7.3,7.27,11.1,10.73,3.85,3.5,8.35,5.83,13.55,6.76,8.47,1.51,16.1-.38,22.97-5.48,3.37-2.5,6.24-5.5,8.83-8.79,.17-.22,.35-.44,.53-.66Z"/>
  </g>
</svg>