<?xml version="1.0" encoding="UTF-8"?>
<svg id="Capa_1" data-name="Capa 1" xmlns="http://www.w3.org/2000/svg" viewBox="0 0 256 256">
  <defs>
    <style>
      .cls-1 {
        fill: #61dafb;
      }
    </style>
  </defs>
  <path d="M235.29,113.25c-3.25-5.09-7.69-9.62-13.59-13.85-5.88-4.22-12.45-7.77-20.19-10.9,1.11-8.05,1.3-15.35,.63-22.41-.82-8.55-2.88-15.32-6.48-21.29-5.49-9.09-13.91-14.41-24.34-15.37-8.36-.77-15.43,1.46-20.02,3.21-7.72,2.94-15.16,7.3-23.25,13.64-2.33-1.83-4.75-3.67-7.32-5.43-9.31-6.39-18.36-10.04-27.64-11.14-14.52-1.73-26.55,4.34-33,16.66-2.09,3.98-3.66,8.4-4.67,13.13-2.23,10.44-1.6,20.39-.38,29.07-5.28,2.15-10.06,4.53-14.46,7.19-5.97,3.6-13.54,8.83-19.08,17.4-7.39,11.44-7.38,24.07,.04,35.57,3.17,4.91,7.44,9.28,13.05,13.37,5.98,4.35,12.68,8,20.61,11.2-1.09,7.88-1.3,15.02-.68,21.92,.5,5.49,1.7,13.69,6.42,21.59,5.88,9.83,15.36,15.4,26.69,15.68,.33,0,.66,.01,.99,.01,4.58,0,9.19-.78,14.05-2.37,8.41-2.75,16.4-7.18,25.14-13.95,.28-.21,.55-.43,.82-.64,1.46,1.16,2.96,2.32,4.54,3.45,8.97,6.44,17.63,10.5,26.46,12.41,18.76,4.07,34.17-4.75,40.2-23.01,1.73-5.23,2.68-10.91,2.91-17.37,.2-5.67-.12-11.55-.98-17.79,6.44-2.63,12.19-5.62,17.39-9.06,4.55-3.01,11.17-7.89,16.09-15.58,7.3-11.38,7.31-23.94,.03-35.34Z"/>
  <g>
    <path class="cls-1" d="M128.62,196.74c-3.28,2.71-6.4,5.44-9.68,7.98-6.34,4.9-13.09,9.12-20.77,11.63-3.3,1.08-6.67,1.72-10.17,1.64-6.48-.16-11.3-3.11-14.6-8.62-2.84-4.76-3.94-10.03-4.43-15.46-.88-9.68,.35-19.19,2.4-28.62,.27-1.24-.03-1.68-1.22-2.05-9.6-3.04-18.82-6.9-27.03-12.87-3.65-2.65-6.94-5.68-9.4-9.51-4.26-6.59-4.31-13.23-.04-19.83,3.61-5.59,8.79-9.48,14.39-12.86,6.82-4.11,14.15-7.11,21.72-9.53,.53-.17,1.05-.35,1.66-.56-.51-2.67-1.07-5.26-1.49-7.87-1.5-9.21-2.33-18.47-.36-27.69,.69-3.24,1.8-6.5,3.34-9.43,3.91-7.46,10.63-9.92,18.44-8.99,7.84,.93,14.76,4.31,21.15,8.7,4.91,3.37,9.47,7.26,14.18,10.92,.51,.4,.97,.86,1.52,1.35,2.33-2,4.59-4.01,6.93-5.91,6.5-5.3,13.4-9.97,21.3-12.98,4.34-1.65,8.78-2.76,13.52-2.32,5.9,.55,10.25,3.43,13.27,8.43,2.81,4.66,3.95,9.83,4.46,15.17,.94,9.86-.29,19.56-2.38,29.18-.25,1.15,.04,1.53,1.1,1.86,9.51,3,18.66,6.81,26.82,12.67,3.82,2.74,7.26,5.87,9.82,9.87,4.19,6.57,4.19,13.16-.01,19.72-3.04,4.73-7.25,8.25-11.88,11.31-7.53,4.98-15.77,8.43-24.34,11.12-1.3,.41-1.48,.92-1.2,2.17,1.83,8.27,2.94,16.63,2.63,25.13-.16,4.54-.76,9.01-2.19,13.35-3.7,11.2-11.84,15.88-23.36,13.39-7.81-1.69-14.68-5.43-21.08-10.02-4.01-2.88-7.75-6.14-11.6-9.24-.51-.41-.98-.85-1.41-1.23Zm1.1-97.87c-5.55,.25-11.98,.51-18.41,.88-.6,.03-1.34,.6-1.71,1.13-6.33,9.2-11.88,18.86-16.67,28.96-.39,.83-.43,1.47-.02,2.33,4.57,9.58,9.9,18.71,15.76,27.55,1.11,1.68,2.26,2.51,4.4,2.65,10.83,.68,21.65,.66,32.46-.23,.5-.04,1.12-.47,1.42-.9,6.48-9.39,12.11-19.27,16.96-29.59,.2-.43,.21-1.11,.01-1.54-4.86-10.38-10.62-20.24-17.14-29.65-.27-.39-.88-.72-1.35-.75-4.94-.31-9.88-.54-15.72-.85Zm53.37,56.29c8.86-2.82,17.32-6.23,24.85-11.59,3.29-2.34,6.31-4.97,8.32-8.57,1.54-2.76,1.54-5.5,0-8.25-1.75-3.12-4.3-5.51-7.11-7.63-7.31-5.52-15.62-9.04-24.25-11.89-.64-.21-1.3-.39-1.92-.58-.14,.27-.22,.39-.27,.52-2.79,7.61-5.58,15.22-8.32,22.84-.19,.53-.12,1.27,.09,1.81,1.64,4.21,3.41,8.37,4.99,12.61,1.3,3.48,2.39,7.05,3.62,10.72Zm-61.01,35.38c-.23-.3-.33-.45-.45-.59-5.19-6.24-10.36-12.49-15.59-18.69-.42-.49-1.22-.81-1.88-.92-4.92-.79-9.87-1.44-14.78-2.26-3.06-.51-6.09-1.23-9.15-1.86-.11,.24-.21,.4-.25,.58-1.86,8.6-3.01,17.28-2.31,26.1,.31,3.82,1.03,7.57,2.73,11.07,1.87,3.85,4.95,5.55,9.16,5.26,.93-.06,1.85-.2,2.76-.39,5.38-1.1,10.16-3.6,14.75-6.5,5.37-3.4,10.29-7.39,15.01-11.8Zm12.51-119.32c.25,.33,.36,.48,.47,.62,5.19,6.23,10.37,12.47,15.59,18.68,.34,.41,.94,.75,1.46,.84,5.89,.96,11.79,1.83,17.67,2.8,2.24,.37,4.44,.95,6.67,1.43,.14-.27,.26-.42,.29-.59,1.96-9.4,3.28-18.84,2.03-28.46-.46-3.48-1.28-6.87-3.14-9.92-1.59-2.6-3.91-4.03-6.93-3.98-2.03,.04-4.13,.21-6.06,.77-11.02,3.2-19.58,10.33-28.05,17.81Zm-61.01,35.37c-2.81,1-5.53,1.85-8.15,2.93-3.22,1.34-6.42,2.77-9.53,4.35-4.64,2.35-8.95,5.21-12.57,9-5.34,5.59-5.36,10.37-.05,15.99,.61,.64,1.25,1.26,1.91,1.85,3.44,3.06,7.31,5.47,11.38,7.58,5.47,2.84,11.19,5.03,17.12,6.87,.13-.29,.24-.49,.31-.7,2.77-7.56,5.56-15.12,8.29-22.7,.19-.53,.11-1.27-.1-1.81-1.75-4.52-3.62-8.99-5.32-13.53-1.19-3.18-2.16-6.44-3.29-9.86Zm48.32-35.17c-.15-.2-.21-.33-.3-.42-6.08-5.56-12.53-10.62-19.89-14.38-3.83-1.96-7.81-3.52-12.18-3.85-4.52-.35-7.52,1.18-9.32,5.34-1.07,2.49-1.84,5.19-2.29,7.87-1.24,7.49-.58,14.97,.67,22.41,.41,2.41,.91,4.8,1.37,7.22,.42-.04,.6-.04,.78-.07,7.94-1.37,15.87-2.73,23.8-4.16,.59-.11,1.23-.58,1.63-1.07,4.45-5.39,8.85-10.83,13.29-16.24,.76-.93,1.62-1.78,2.44-2.66Zm13.04,119.1c.08,.09,.24,.31,.44,.5,4.94,4.51,10.16,8.66,15.91,12.09,4.55,2.71,9.29,4.96,14.59,5.8,5.56,.88,8.89-.82,11.02-6.04,.87-2.14,1.46-4.43,1.85-6.71,1.08-6.31,.77-12.66-.06-18.97-.49-3.68-1.24-7.33-1.88-11.05-.5,.08-.77,.12-1.03,.16-7.85,1.35-15.7,2.68-23.55,4.07-.57,.1-1.2,.49-1.57,.95-1.38,1.7-2.6,3.54-4,5.22-3.86,4.67-7.79,9.3-11.73,13.99Zm-17.84-100.21h22.41c-3.85-4.43-7.48-8.61-11.28-12.97-3.81,4.44-7.37,8.59-11.13,12.97Zm11.35,94.17c3.8-4.42,7.36-8.57,11.11-12.94h-22.35c3.8,4.38,7.39,8.52,11.24,12.94Zm40.64-42.9c-3.73,6.52-7.3,12.73-11.04,19.27,5.61-1.09,10.93-2.13,16.6-3.23-1.9-5.48-3.7-10.67-5.56-16.03Zm-81.49-21.36c3.77-6.56,7.33-12.77,11.04-19.24-5.54,1.07-10.91,2.1-16.59,3.19,1.88,5.44,3.67,10.61,5.55,16.05Zm70.4-19.26c3.76,6.47,7.34,12.63,11.09,19.08,1.83-5.35,3.59-10.48,5.44-15.88-5.6-1.09-10.93-2.12-16.53-3.2Zm-70.4,40.81c-1.83,5.35-3.59,10.47-5.44,15.89,5.63,1.08,10.97,2.1,16.53,3.17-3.77-6.48-7.32-12.59-11.08-19.06Z"/>
    <path class="cls-1" d="M128.27,149.06c-10.13-.03-18.16-8.15-18.12-18.32,.04-9.92,8.21-18.05,18.15-18.06,10.06,0,18.25,8.22,18.21,18.29-.04,10.03-8.19,18.11-18.24,18.08Z"/>
  </g>
</svg>