<?xml version="1.0" encoding="UTF-8"?>
<svg id="Capa_1" data-name="Capa 1" xmlns="http://www.w3.org/2000/svg" viewBox="0 0 435.74 179.91">
  <defs>
    <style>
      .cls-1 {
        fill: #0ae448;
      }
    </style>
  </defs>
  <path d="M434.26,47.43c-3.38-18.87-14.6-32.53-32.45-39.49-8.26-3.22-17.52-4.9-28.31-5.13-6.04-.13-12.08-.1-17.92-.07-2.38,.01-4.76,.02-7.15,.03-9.64,0-16.13,5.17-18.27,14.55-2.29,10.03-4.58,20.07-6.86,30.1V30.37c.02-2.89,.04-5.78,.07-8.68v-.36c.05-5.53-1.63-10.06-5-13.46-3.35-3.39-7.81-5.11-13.24-5.12-13.75-.02-27.49,0-41.24-.03h-.07c-7.65,0-14.03,4.14-17.08,11.08-1.42,3.23-2.88,6.46-4.33,9.68l-7.78,17.34c-.13-.61-.26-1.22-.4-1.82-4.51-18.91-16.53-31.55-34.74-36.55-10.33-2.84-21.22-3.21-32.36-1.11-9.44,1.78-17.82,5.37-24.9,10.67-5.19,3.88-9.53,8.31-13,13.21-6.31-10.9-15.93-18.56-27.95-22.21C92.86,.46,83.95-.17,74.05,1.08c-16.97,2.15-31.73,10.07-43.85,23.55-9.84,10.94-17.27,24.47-22.72,41.36-3.26,10.1-5.45,20.67-6.7,32.29-1.11,10.32-1.03,19.65,.25,28.52,1.47,10.18,4.34,18.75,8.8,26.18,8.75,14.61,21.77,23.59,37.64,25.96,3.46,.52,6.83,.69,9.88,.69s5.92-.18,8.14-.36c9.66-.79,17.97-2.99,25.42-6.71,7.73-3.86,14.4-9.21,20.19-16.21,5.46,9.1,13.66,15.83,24.17,19.72,6.98,2.58,14.47,3.82,23.28,3.82,1.73,0,3.51-.05,5.35-.14,8.68-.45,16.87-2.59,24.38-6.34,2.66,2.29,6.06,3.79,9.88,4.24,.76,.09,1.52,.13,2.32,.13h10.17c6.35,0,12.69,0,19.04,0h.02c8.19,0,14.83-4.57,17.75-12.22,.71-1.87,1.52-3.77,2.37-5.79,.06-.14,.12-.28,.18-.42,2.77,0,5.54,0,8.31,0-.34,10.34,6.68,17.9,17.09,18.4,.36,.02,.72,.02,1.11,.02h7.92c6.89,0,13.77,0,20.66,0,1.97,0,3.8-.25,5.5-.69,1.28,.33,2.69,.57,4.25,.66,.49,.03,.99,.04,1.56,.04h6.98c1.93,0,3.86,0,5.79,0,4.67,0,9.35,0,14.02-.01,9.49-.02,15.89-5.18,18.01-14.53,.51-2.24,1-4.49,1.49-6.73,.42-1.9,.83-3.79,1.26-5.68,.28-1.24,.49-2.43,.62-3.56,2.97-.4,5.85-.95,8.69-1.65,25.12-6.27,43.29-21.08,54.01-44.03,8-17.14,10.35-35.36,6.98-54.15Z"/>
  <g>
    <path class="cls-1" d="M82.84,110.86c-2.29,0-4.13,0-5.97,0-.97,0-1.93-.04-2.9,0-2.2,.1-3.45-1.37-2.9-3.56,1.38-5.55,2.56-11.14,3.83-16.72,.38-1.66,.78-3.32,1.16-4.98,.6-2.66,1.41-3.36,4.12-3.36,7.81-.01,15.61,0,23.42,0,8.33,0,16.66,0,24.98,0,.52,0,1.04-.02,1.56,0,2.06,.12,3.11,1.37,2.7,3.39-.56,2.76-1.23,5.51-1.85,8.26-1.06,4.63-2.11,9.26-3.18,13.89-.56,2.4-1.38,3.05-3.88,3.08-2.08,.02-4.15,0-6.51,0-.41,1.21-.84,2.37-1.2,3.54-2.64,8.62-5.98,16.94-10.64,24.68-5.23,8.7-11.92,15.91-21.14,20.51-6.35,3.17-13.13,4.65-20.14,5.23-4.9,.4-9.8,.52-14.68-.22-12.26-1.84-21.1-8.66-27.35-19.08-3.83-6.4-5.83-13.46-6.89-20.8-1.19-8.29-1.08-16.58-.18-24.9,1.08-10.01,3.01-19.84,6.09-29.4,4.27-13.26,10.28-25.64,19.7-36.11,9.38-10.43,20.85-17.08,34.89-18.86,7.13-.9,14.24-.69,21.2,1.42,9.24,2.8,16,8.59,20.44,17.09,3.06,5.86,4.72,12.17,5.43,18.72,.32,2.95,.49,5.92,.69,8.89,.06,.89,.1,1.79-.02,2.67-.2,1.57-1.09,2.35-2.66,2.47-.44,.04-.89,.01-1.34,.01-9.29,0-18.59,0-27.88,0-.3,0-.6,.02-.89,0-1.72-.09-2.22-.55-2.41-2.25-.27-2.36-.47-4.73-.84-7.08-.19-1.23-.58-2.46-1.06-3.62-2.07-4.99-6.11-6.94-11.37-5.6-4.17,1.06-7.14,3.79-9.77,6.97-2.66,3.23-4.67,6.88-6.46,10.65-4.19,8.83-7.38,17.99-8.99,27.66-1.4,8.41-1.79,16.86-.58,25.31,.34,2.39,1.12,4.8,2.12,7,2.42,5.31,7.63,7.58,13.57,6.26,4.29-.95,7.82-3.14,10.7-6.41,3.14-3.57,5.39-7.63,6.68-12.21,.19-.68,.23-1.41,.41-2.56Z"/>
    <path class="cls-1" d="M273.33,145.1c-1.1-.1-1.91-.23-2.71-.23-9.22-.01-18.44,.02-27.66-.04-1.85-.01-2.98,.46-3.69,2.38-1.66,4.45-3.68,8.76-5.37,13.19-.79,2.07-2.12,2.89-4.21,2.89-9.74,0-19.48,0-29.22,0-.22,0-.45,0-.67-.03-2.47-.29-3.36-1.75-2.38-4.05,1.45-3.42,2.95-6.81,4.47-10.2,5.56-12.39,11.12-24.78,16.69-37.17,5.75-12.79,11.52-25.58,17.27-38.37,5.93-13.2,11.85-26.41,17.77-39.61,2.13-4.74,4.28-9.47,6.37-14.22,.75-1.72,1.95-2.42,3.83-2.41,13.75,.04,27.51,.01,41.26,.03,2.93,0,3.79,.96,3.76,3.95-.03,3.05-.05,6.1-.06,9.14-.02,25.2-.03,50.41-.07,75.61-.03,17.92-.11,35.83-.17,53.75,0,2.93-.58,3.55-3.51,3.56-9.52,.02-19.03,0-28.55,0-.15,0-.3,0-.45,0-2.52-.12-3.35-.94-3.27-3.45,.14-4.09,.35-8.17,.52-12.25,.03-.73,0-1.46,0-2.48Zm3.66-89.51c-.16-.07-.33-.15-.49-.22-.33,.69-.7,1.36-.98,2.06-3.18,7.91-6.34,15.82-9.51,23.74-3.83,9.57-7.68,19.13-11.5,28.7-.43,1.07-.69,2.2-1.14,3.66,7.17-.12,13.94,.53,20.6,.07,.76-2.02,3.39-54.23,3.02-58.01Z"/>
    <path class="cls-1" d="M335.38,133.67c-.44,1.52,.54,1.81,1.3,2.21,3.35,1.77,6.69,3.54,10.06,5.26q4.06,2.07,3.07,6.51c-.93,4.13-1.81,8.26-2.74,12.39-.62,2.75-1.19,3.23-3.9,3.24-8.92,.02-17.84,.01-26.76,.01-.22,0-.45,0-.67-.01-2.91-.17-3.67-1.17-3.02-4.03,3.06-13.46,6.12-26.92,9.19-40.38,4.32-18.96,8.63-37.91,12.95-56.87,3.15-13.82,6.29-27.64,9.45-41.46,.63-2.74,1.31-3.27,4.15-3.28,8.25,0,16.5-.14,24.75,.04,7.97,.17,15.83,1.21,23.34,4.14,13.16,5.14,20.98,14.78,23.44,28.54,2.81,15.71,.89,31.03-5.85,45.46-8.91,19.08-23.94,31-44.38,36.09-5.73,1.43-11.55,2.01-17.44,2-5.05,0-10.11-.02-15.16-.02-.58,0-1.16,.09-1.78,.15Zm25.27-32.72c.52,.07,.88,.15,1.23,.16,4.94,.16,9.14-1.63,12.77-4.88,4.2-3.77,6.86-8.54,8.72-13.78,1.96-5.5,2.9-11.21,3.09-17.03,.12-3.66-.2-7.29-1.67-10.7-1.65-3.81-4.42-6.05-8.74-6.03-6.61,.02-13.23,0-19.84,.01-.56,0-1.12,.14-1.57,.2-.55,1.32,.31,1.65,1.02,2.03,2.22,1.2,4.46,2.36,6.68,3.56,2.41,1.29,4.81,2.6,7.33,3.95-.08,.91-.07,1.72-.23,2.5-.56,2.68-1.17,5.35-1.78,8.03-2.26,9.99-4.52,19.97-6.77,29.96-.14,.62-.15,1.27-.24,2.02Z"/>
    <path class="cls-1" d="M152.15,120.61c.21,2.77,.23,5.31,.64,7.78,.7,4.25,3.06,6.42,6.84,6.69,4.13,.29,7.13-1.7,8.42-5.78,1.76-5.55,.61-10.71-2.42-15.54-2.75-4.37-6.24-8.13-9.87-11.75-4.95-4.94-9.69-10.05-13.62-15.86-4.71-6.96-7.82-14.57-8.45-22.95-1.22-16.15,3.98-29.68,17.22-39.59,5.62-4.21,12.02-6.73,18.9-8.03,8.67-1.64,17.31-1.5,25.84,.84,13.38,3.67,21.29,12.61,24.47,25.93,1.2,5.01,1.56,10.13,1.39,15.27-.07,2.03-.97,2.96-2.99,3.14-.52,.05-1.04,.03-1.56,.03-8.25,0-16.5,0-24.75,0-.37,0-.74,.02-1.11,0-2.46-.13-3.61-1.29-3.82-3.74-.15-1.77-.21-3.58-.6-5.3-1.08-4.73-3.85-6.8-8.6-6.63-4.65,.16-8,2.96-8.81,7.33-.7,3.81,.02,7.37,1.69,10.81,2.07,4.27,5.14,7.81,8.35,11.22,2.8,2.98,5.75,5.81,8.61,8.73,4.59,4.7,8.58,9.86,11.51,15.78,2.76,5.59,4.38,11.49,4.76,17.74,.46,7.65-.24,15.13-3.01,22.34-3.59,9.33-9.71,16.38-18.6,21.02-6.1,3.18-12.59,4.85-19.42,5.2-7.77,.4-15.45-.06-22.84-2.8-10.06-3.72-16.74-10.71-20.08-20.9-2.09-6.38-2.53-12.94-2.22-19.59,.09-1.88,.87-2.68,2.69-2.9,.44-.05,.89-.05,1.34-.05,8.85,0,17.69,0,26.54-.01,1.57,0,2.99,.17,3.6,1.57Z"/>
  </g>
</svg>