<?xml version="1.0" encoding="UTF-8"?>
<svg id="Capa_1" data-name="Capa 1" xmlns="http://www.w3.org/2000/svg" viewBox="0 0 256 256">
  <defs>
    <style>
      .cls-1 {
        fill: #fcfcfd;
      }

      .cls-2 {
        fill: #336791;
      }
    </style>
  </defs>
  <path d="M223.67,152.31c-1.42-2.63-3.84-4.56-6.8-5.42-2.26-.66-4.63-.76-7.26-.3-.63,.11-1.26,.22-1.91,.34-2.39,.43-4.85,.87-7.19,1.09,10.37-17.97,17.61-36.71,21.56-55.83,1.92-9.29,2.44-16.97,1.64-24.18-.39-3.5-1.3-8.66-4.78-13.11-10.03-12.83-23.65-20.46-40.47-22.66-5.75-.75-11.79-.82-17.97-.21-6.06,.6-11.54,1.69-16.74,3.32-4.49-.98-9.26-1.5-14.18-1.55-.2,0-.39,0-.59,0-9.23,0-17.24,1.98-24.37,6.02-6.24-2.09-12.69-3.64-19.22-4.61-9.87-1.46-18.13-1.33-25.99,.41-10.37,2.3-18.27,7.17-24.16,14.88-4.77,6.25-7.71,13.81-9,23.13-1.15,8.29-.92,17,.67,25.87,2.36,13.17,5.38,25.82,8.97,37.59,2.57,8.43,5.89,18.36,10.97,28.1,2.45,4.69,5.64,10.1,10.72,14.68,4.18,3.76,8.97,5.71,13.96,5.63,4.05-.06,7.96-1.47,11.45-4.09,1.37,1.4,3.02,2.54,4.91,3.42,7.24,3.35,15.18,4.24,23.59,2.64,1.25-.24,2.46-.55,3.65-.93,.1,6.72,.37,13.69,1.04,20.71,.4,4.19,1.22,9.7,4,15.13,5.2,10.15,13.75,15.51,24.72,15.51h.12c4.2-.02,8.01-.84,12.43-2.08,12.32-3.44,20.24-11.75,22.9-24.03,1.27-5.84,2.02-11.7,2.74-17.37l.06-.45c.11-.86,.22-1.72,.33-2.58,.49-3.74,.94-7.53,1.37-11.25,3.79,.15,7.82-.16,12.43-.93,8.3-1.39,15.67-4.92,21.91-10.5,1.88-1.68,4.18-4.08,5.29-7.74,.9-2.97,.61-6.06-.82-8.69Z"/>
  <g>
    <path class="cls-1" d="M122.15,174.47c-3.58,3.17-7.5,5.24-11.98,6.1-6.63,1.26-13.11,.75-19.3-2.11-1.34-.62-2.53-1.48-3.46-2.66-1.71-2.18-1.47-4.85,.63-6.67,1.87-1.61,4.18-2.23,6.51-2.78,2.45-.57,4.93-1.05,7.34-1.82,1.88-.61,3.44-1.61,4.65-3.18,.83-1.08,1.71-2.13,2.56-3.2,.14-.17,.42-.35,.25-.59-.09-.13-.36-.16-.56-.16-3.6-.15-6.99-1.11-10.18-2.76-.57-.3-.73,.11-.99,.38-4.89,5.25-9.65,10.61-14.26,16.12-.94,1.13-1.91,2.23-2.97,3.25-5.58,5.37-12.36,5.47-18.12,.28-3.97-3.58-6.75-8.03-9.19-12.7-4.48-8.58-7.66-17.67-10.48-26.9-3.69-12.08-6.55-24.35-8.78-36.78-1.41-7.86-1.72-15.75-.62-23.66,.99-7.19,3.15-13.96,7.62-19.82,5.1-6.68,11.99-10.48,20.08-12.27,7.78-1.73,15.6-1.48,23.42-.32,7,1.04,13.83,2.76,20.48,5.18,.42,.15,.76,.13,1.14-.13,7.15-4.68,15.08-6.47,23.53-6.39,4.66,.04,9.26,.54,13.8,1.63,.59,.14,1.1,.07,1.67-.12,5.27-1.74,10.69-2.77,16.2-3.31,5.46-.54,10.92-.53,16.36,.19,14.6,1.91,26.7,8.32,35.83,20.01,2.17,2.78,2.94,6.12,3.32,9.54,.82,7.42-.04,14.74-1.54,21.98-4.59,22.26-13.47,42.75-25.69,61.84-.55,.85-.32,1.12,.45,1.44,3.06,1.26,6.25,1.29,9.47,1.13,3.87-.19,7.65-.97,11.44-1.64,1.35-.24,2.73-.27,4.06,.12,2.37,.69,3.57,2.93,2.85,5.3-.57,1.87-1.83,3.27-3.24,4.52-5.27,4.71-11.4,7.63-18.37,8.8-4.6,.77-9.22,1.15-13.87,.61-.94-.11-1.89-.29-2.81-.53-.58-.15-.78-.06-.85,.55-.68,5.87-1.33,11.74-2.1,17.59-.87,6.63-1.61,13.28-3.03,19.82-2.15,9.91-8.22,16.03-17.9,18.73-3.46,.97-6.95,1.8-10.56,1.81-8.64,.03-14.65-4.08-18.54-11.67-2.04-3.98-2.84-8.22-3.26-12.59-.99-10.39-1.09-20.81-1.05-31.23,0-.23,0-.46,0-.92Zm-32.16-82.38c.52-.26,.82-.41,1.12-.56,5.1-2.6,10.42-4.41,16.2-4.65,8.14-.34,13.86,3.91,15.75,11.84,1.24,5.19,1.98,10.45,2.27,15.78,.38,7.04-.39,13.89-2.86,20.53-1.37,3.68-3.2,7.16-4.51,10.86-.82,2.33-1.76,4.63-2.36,7.12,.22,0,.35,.01,.48,0,3.3-.44,6.08,.7,8.34,3,2.67,2.71,3.65,6.02,3.57,9.87-.29,13.7-.4,27.4,.96,41.06,.34,3.41,1.05,6.7,2.63,9.81,3.03,5.98,7.79,8.87,14.5,8.4,3.67-.26,7.19-1.2,10.62-2.49,5.46-2.05,8.99-5.87,10.64-11.47,1.02-3.45,1.56-6.99,2.03-10.54,1.67-12.55,3.59-25.07,4.3-37.73,.21-3.84,1.85-7.05,5.41-8.96,.72-.39,1.5-.66,2.27-.93,.47-.16,.64-.32,.26-.75-.32-.36-.58-.76-.88-1.13-2.22-2.74-4.32-5.56-5.77-8.8-.94-2.09-2.02-4.1-3.13-6.09-3.65-6.56-7.2-13.17-9.77-20.25-1.81-5-3.26-10.08-2.95-15.48,.34-5.91,2.97-10.36,8.53-12.79,3.05-1.33,6.29-1.76,9.59-1.79,1.93-.01,3.86,.04,5.87,.24-.15-.44-.25-.77-.37-1.08-2.24-5.92-5.35-11.36-9.26-16.32-12.6-15.98-28.98-23.62-49.39-21.94-9.49,.78-17.26,5.1-23.05,12.73-7.23,9.54-9.8,20.69-11.04,32.52Zm10.26-40.27c-.3-.11-.52-.2-.75-.27-5.35-1.68-10.78-2.98-16.33-3.78-7.05-1-14.09-1.25-21.09,.31-9.39,2.09-16.4,7.24-20.23,16.24-3.71,8.73-4.09,17.91-3.2,27.17,.54,5.67,1.75,11.26,2.96,16.83,2.8,12.95,6.21,25.72,10.88,38.13,2.47,6.56,5.23,12.98,9.19,18.8,1.79,2.64,3.77,5.12,6.63,6.72,2.02,1.13,4.04,1.09,6.03-.08,1.31-.77,2.42-1.78,3.4-2.93,4.9-5.79,9.84-11.54,15.05-17.06,.55-.58,.51-.87-.07-1.42-7.22-6.92-10.25-15.42-9.1-25.31,.81-7.01,1.22-14.04,.75-21.07-.44-6.65-.21-13.24,.91-19.8,2.07-12.12,6.08-23.36,14.97-32.49Zm85.39,96.23c.13-.19,.27-.38,.4-.58,11.73-19.06,20.32-39.36,24.21-61.5,1-5.69,1.53-11.45,.71-17.23-.31-2.21-.79-4.38-2.21-6.19-6.33-8.04-14.43-13.42-24.3-16.14-7.13-1.96-14.39-2.38-21.73-1.78-2.9,.24-5.79,.61-8.86,1.31,.48,.25,.77,.41,1.06,.55,2,.95,3.97,1.99,5.85,3.16,11.82,7.41,20.2,17.76,26.04,30.33,2.07,4.46,3.16,9.04,2.63,13.97-.26,2.44-.55,4.88-.92,7.31-.64,4.22-1.14,8.45-.76,12.75,.43,4.86,1.24,9.69,1.38,14.58,.17,6.09-.84,11.91-3.86,17.25-.56,.98-.51,1.59,.39,2.22Zm-65.89-28.22c-.05-8.19-.92-14.23-2.31-20.19-.83-3.53-2.87-5.99-6.58-6.78-1.04-.22-2.09-.35-3.15-.3-6.38,.31-12.08,2.56-17.35,6.08-.41,.27-.6,.59-.56,1.1,.11,1.39,.17,2.79,.25,4.19,.37,7.11,.19,14.2-.76,21.26-.97,7.26,.75,13.77,5.54,19.35,3.72,4.33,8.47,6.79,14.21,7.21,.5,.04,.96,.14,1.16-.59,1.43-5.1,3.4-10,5.59-14.81,2.69-5.9,4.02-12.08,3.95-16.51Zm61.21,21.94c.97-2,1.52-3.81,1.91-5.67,1.06-5.1,.57-10.2-.13-15.28-.99-7.05-1.09-14.06,.24-21.08,.44-2.31,.73-4.65,.78-7.01,0-.37,.1-.74-.49-.8-3.75-.4-7.5-.61-11.2,.3-4.89,1.19-7.12,4-7.28,9.02-.12,3.57,.7,6.97,1.78,10.33,2.21,6.88,5.49,13.28,8.97,19.58,1.87,3.4,3.79,6.78,5.45,10.61Zm-88.36,31.17c.63,.33,1.03,.58,1.47,.77,2.54,1.1,5.22,1.52,7.95,1.72,8.08,.62,14.63-2.17,19.49-8.74,.31-.41,.59-.84,.66-1.36,.32-2.32-.44-4.26-2.22-5.74-1.8-1.5-3.26-1.4-4.83,.32-1.15,1.25-2.22,2.59-3.29,3.92-1.48,1.84-2.99,3.64-5.13,4.78-2.83,1.51-5.94,2.16-9.03,2.87-1.64,.37-3.33,.62-5.08,1.47Zm117.74-13.54c-.13,.02-.27,.03-.4,.05-5.17,1.03-10.37,1.75-15.66,1.35-2.67-.2-5.36-.61-7.61-2.11-1.27-.84-2.3-.71-3.57-.32-2.08,.64-3.29,1.98-3.67,4.1-.18,1.01-.26,2.03-.26,3.06,0,.57,.23,.87,.75,1.06,1.26,.47,2.57,.69,3.9,.78,5.05,.34,10.02-.19,14.91-1.48,4.4-1.16,8.2-3.43,11.6-6.49Z"/>
    <path class="cls-2" d="M89.99,92.09c1.25-11.83,3.81-22.98,11.04-32.52,5.78-7.62,13.55-11.94,23.05-12.73,20.4-1.68,36.79,5.96,49.39,21.94,3.91,4.96,7.02,10.4,9.26,16.32,.12,.32,.22,.64,.37,1.08-2.01-.2-3.94-.26-5.87-.24-3.31,.02-6.55,.45-9.59,1.79-5.56,2.43-8.2,6.88-8.53,12.79-.31,5.39,1.14,10.48,2.95,15.48,2.57,7.08,6.12,13.69,9.77,20.25,1.11,2,2.2,4,3.13,6.09,1.45,3.23,3.54,6.06,5.77,8.8,.3,.37,.57,.77,.88,1.13,.38,.44,.21,.59-.26,.75-.77,.27-1.55,.55-2.27,.93-3.56,1.92-5.2,5.12-5.41,8.96-.71,12.66-2.62,25.18-4.3,37.73-.47,3.55-1.01,7.09-2.03,10.54-1.65,5.6-5.18,9.43-10.64,11.47-3.43,1.29-6.96,2.23-10.62,2.49-6.71,.48-11.46-2.42-14.5-8.4-1.58-3.11-2.29-6.4-2.63-9.81-1.36-13.66-1.25-27.36-.96-41.06,.08-3.85-.9-7.16-3.57-9.87-2.26-2.3-5.04-3.44-8.34-3-.13,.02-.26,0-.48,0,.6-2.49,1.53-4.78,2.36-7.12,1.31-3.7,3.15-7.18,4.51-10.86,2.47-6.64,3.24-13.5,2.86-20.53-.29-5.33-1.04-10.6-2.27-15.78-1.89-7.92-7.6-12.17-15.75-11.84-5.77,.24-11.1,2.06-16.2,4.65-.3,.15-.6,.3-1.12,.56Z"/>
    <path class="cls-2" d="M100.25,51.82c-8.88,9.13-12.9,20.37-14.97,32.49-1.12,6.56-1.35,13.15-.91,19.8,.47,7.03,.06,14.05-.75,21.07-1.15,9.89,1.88,18.39,9.1,25.31,.58,.56,.63,.84,.07,1.42-5.21,5.52-10.15,11.27-15.05,17.06-.98,1.15-2.09,2.16-3.4,2.93-2,1.17-4.02,1.21-6.03,.08-2.86-1.6-4.84-4.08-6.63-6.72-3.96-5.83-6.72-12.25-9.19-18.8-4.67-12.41-8.08-25.18-10.88-38.13-1.2-5.57-2.41-11.15-2.96-16.83-.89-9.27-.51-18.44,3.2-27.17,3.82-9,10.84-14.16,20.23-16.24,7-1.55,14.04-1.31,21.09-.31,5.55,.79,10.98,2.1,16.33,3.78,.23,.07,.45,.16,.75,.27Z"/>
    <path class="cls-2" d="M185.64,148.04c-.9-.62-.95-1.23-.39-2.22,3.03-5.35,4.04-11.17,3.86-17.25-.14-4.89-.94-9.72-1.38-14.58-.38-4.3,.12-8.52,.76-12.75,.37-2.43,.65-4.87,.92-7.31,.53-4.93-.56-9.51-2.63-13.97-5.84-12.57-14.22-22.92-26.04-30.33-1.88-1.18-3.84-2.21-5.85-3.16-.29-.14-.58-.3-1.06-.55,3.07-.7,5.96-1.07,8.86-1.31,7.34-.6,14.6-.18,21.73,1.78,9.87,2.72,17.97,8.11,24.3,16.14,1.42,1.81,1.9,3.98,2.21,6.19,.82,5.78,.29,11.54-.71,17.23-3.89,22.14-12.48,42.44-24.21,61.5-.12,.2-.26,.39-.4,.58Z"/>
    <path class="cls-2" d="M119.75,119.83c.08,4.43-1.26,10.62-3.95,16.51-2.19,4.81-4.16,9.71-5.59,14.81-.21,.74-.66,.63-1.16,.59-5.74-.42-10.49-2.88-14.21-7.21-4.79-5.57-6.51-12.09-5.54-19.35,.95-7.06,1.13-14.15,.76-21.26-.07-1.4-.14-2.8-.25-4.19-.04-.52,.15-.83,.56-1.1,5.26-3.52,10.96-5.76,17.35-6.08,1.06-.05,2.12,.08,3.15,.3,3.7,.79,5.75,3.26,6.58,6.78,1.4,5.96,2.27,12,2.31,20.19Zm-9.4-17.26c1.62-.13,3.16-.87,4.24-2.44,.67-.97,.55-1.83-.31-2.65-1.75-1.69-6.6-2.34-8.71-1.16-.98,.55-1.29,1.35-.93,2.41,.71,2.07,3.25,3.86,5.71,3.84Z"/>
    <path class="cls-2" d="M180.96,141.77c-1.66-3.83-3.57-7.21-5.45-10.61-3.47-6.3-6.76-12.7-8.97-19.58-1.08-3.36-1.89-6.77-1.78-10.33,.17-5.03,2.4-7.83,7.28-9.02,3.7-.9,7.45-.7,11.2-.3,.59,.06,.5,.43,.49,.8-.05,2.36-.34,4.7-.78,7.01-1.32,7.02-1.22,14.03-.24,21.08,.71,5.07,1.19,10.18,.13,15.28-.39,1.87-.94,3.67-1.91,5.67Zm-7.53-41.6c1.99,0,4.21-1.56,4.94-3.42,.35-.9,.06-1.51-.75-1.94-.65-.34-1.35-.45-2.07-.48-1.97-.08-3.88,.17-5.58,1.26-1.24,.79-1.36,1.71-.39,2.79,1.02,1.14,2.3,1.79,3.86,1.79Z"/>
    <path class="cls-2" d="M92.6,172.94c1.76-.84,3.44-1.09,5.08-1.47,3.09-.7,6.19-1.35,9.03-2.87,2.14-1.14,3.65-2.93,5.13-4.78,1.07-1.33,2.14-2.66,3.29-3.92,1.58-1.72,3.04-1.82,4.83-.32,1.78,1.48,2.53,3.42,2.22,5.74-.07,.52-.36,.95-.66,1.36-4.86,6.57-11.41,9.35-19.49,8.74-2.73-.21-5.42-.62-7.95-1.72-.43-.19-.84-.44-1.47-.77Z"/>
    <path class="cls-2" d="M210.34,159.4c-3.4,3.05-7.2,5.32-11.6,6.49-4.89,1.29-9.86,1.83-14.91,1.48-1.33-.09-2.64-.31-3.9-.78-.52-.19-.75-.49-.75-1.06,0-1.03,.08-2.05,.26-3.06,.37-2.12,1.58-3.46,3.67-4.1,1.27-.39,2.3-.53,3.57,.32,2.26,1.5,4.94,1.91,7.61,2.11,5.29,.4,10.49-.32,15.66-1.35,.13-.03,.26-.04,.4-.05Z"/>
    <path class="cls-1" d="M110.35,102.56c-2.46,.02-4.99-1.77-5.71-3.84-.36-1.05-.05-1.86,.93-2.41,2.11-1.18,6.96-.53,8.71,1.16,.85,.82,.98,1.68,.31,2.65-1.08,1.56-2.63,2.31-4.24,2.44Z"/>
    <path class="cls-1" d="M173.43,100.17c-1.56,0-2.84-.65-3.86-1.79-.97-1.08-.85-2,.39-2.79,1.7-1.09,3.61-1.34,5.58-1.26,.72,.03,1.42,.13,2.07,.48,.81,.43,1.1,1.04,.75,1.94-.73,1.86-2.94,3.41-4.94,3.42Z"/>
    <path d="M144.9,232.2c-8.81,0-15.42-4.17-19.63-12.4-2.34-4.57-3.04-9.38-3.4-13.07-.89-9.32-1.08-18.6-1.06-29.47-3.23,2.38-6.65,3.9-10.39,4.61-7.21,1.37-13.98,.63-20.11-2.21-1.62-.75-2.95-1.78-3.95-3.05-1.36-1.73-1.72-3.77-1.14-5.61-.27,.32-.54,.64-.81,.97-.86,1.04-1.91,2.24-3.07,3.36-2.98,2.87-6.41,4.42-9.9,4.47-3.49,.06-6.96-1.38-10.04-4.16-4.41-3.97-7.26-8.84-9.48-13.08-4.87-9.33-8.08-18.95-10.57-27.13-3.53-11.56-6.49-23.98-8.81-36.93-1.48-8.28-1.69-16.38-.63-24.08,1.15-8.31,3.73-15,7.88-20.44,5.03-6.59,11.85-10.77,20.85-12.77,7.15-1.59,14.75-1.7,23.91-.34,7.06,1.05,14.03,2.81,20.72,5.24,6.92-4.52,14.85-6.68,24.24-6.59,4.93,.04,9.67,.6,14.1,1.67,.28,.07,.54,.04,.94-.09,5.07-1.67,10.47-2.78,16.49-3.37,5.74-.57,11.35-.5,16.66,.19,15.28,2,27.63,8.9,36.7,20.51,2.55,3.26,3.26,7.17,3.6,10.21,.73,6.6,.24,13.71-1.56,22.4-4.39,21.3-13.02,42.13-25.65,61.93,2.83,1.05,5.86,1.01,8.51,.88,3.15-.16,6.33-.73,9.41-1.28,.62-.11,1.25-.22,1.87-.33,1.75-.31,3.27-.26,4.67,.15h0c1.49,.44,2.68,1.38,3.37,2.65,.7,1.29,.83,2.82,.37,4.32-.69,2.28-2.22,3.88-3.62,5.13-5.42,4.85-11.83,7.92-19.04,9.12-5.48,.91-10,1.11-14.24,.62-.76-.09-1.52-.22-2.28-.39-.12,1.03-.24,2.06-.36,3.1-.52,4.51-1.06,9.17-1.66,13.75-.13,1.02-.26,2.03-.39,3.05-.71,5.55-1.45,11.28-2.66,16.88-2.22,10.22-8.56,16.86-18.84,19.73-3.97,1.11-7.35,1.85-10.91,1.86-.03,0-.07,0-.1,0Zm-21.42-60.7v3.38c0,.21,0,.36,0,.51-.05,11.62,.11,21.35,1.05,31.1,.33,3.45,.98,7.94,3.12,12.11,3.77,7.37,9.42,10.95,17.26,10.95,.03,0,.06,0,.09,0,3.26-.01,6.44-.71,10.2-1.77,9.39-2.62,14.94-8.42,16.96-17.73,1.19-5.49,1.92-11.17,2.62-16.66,.13-1.02,.26-2.04,.39-3.06,.6-4.56,1.13-9.21,1.65-13.71,.15-1.29,.3-2.58,.45-3.87,.03-.26,.12-1.04,.8-1.5,.68-.46,1.44-.26,1.72-.18,.86,.23,1.75,.4,2.62,.5,3.99,.46,8.27,.27,13.5-.6,6.71-1.12,12.67-3.97,17.7-8.48,1.13-1.01,2.35-2.26,2.85-3.92,.25-.82,.19-1.61-.17-2.27-.35-.66-.97-1.13-1.78-1.36h0c-.99-.29-2.12-.32-3.46-.08-.62,.11-1.24,.22-1.86,.33-3.16,.57-6.43,1.16-9.75,1.32-3.05,.15-6.6,.19-10.05-1.23-.4-.16-1.22-.5-1.49-1.38-.28-.9,.23-1.71,.43-2.01,12.57-19.63,21.16-40.29,25.51-61.39,1.73-8.4,2.22-15.25,1.52-21.57-.32-2.86-.93-6.15-3.05-8.86-8.63-11.04-20.39-17.6-34.95-19.51-5.11-.67-10.51-.73-16.05-.18-5.82,.58-11.03,1.64-15.92,3.25-.59,.2-1.4,.39-2.4,.15-4.23-1.01-8.77-1.55-13.5-1.59-8.86-.09-16.31,1.94-22.79,6.17-.72,.47-1.51,.56-2.33,.26-6.53-2.37-13.33-4.09-20.22-5.11-8.82-1.31-16.11-1.21-22.94,.31-8.36,1.85-14.67,5.71-19.3,11.78-3.87,5.07-6.27,11.35-7.36,19.19-1.03,7.42-.82,15.24,.61,23.24,2.3,12.84,5.24,25.16,8.74,36.62,2.46,8.06,5.62,17.54,10.39,26.67,2.1,4.03,4.8,8.64,8.9,12.33,5.27,4.74,11.21,4.65,16.3-.25,1.07-1.03,2.05-2.17,2.87-3.15,4.38-5.24,9.06-10.53,14.3-16.17,.02-.02,.04-.05,.06-.07,.93-1.15,1.97-.86,2.51-.58,3.08,1.6,6.32,2.48,9.62,2.62,.28,.01,1.12,.05,1.6,.74,.18,.26,.68,1.18-.29,2.17l-.03,.03c-.33,.42-.67,.84-1.01,1.25-.51,.62-1.03,1.27-1.52,1.91-1.33,1.72-3.06,2.91-5.3,3.64-1.86,.6-3.76,1.02-5.59,1.43-.62,.14-1.23,.28-1.85,.42-2.3,.54-4.34,1.1-5.95,2.49-1.56,1.35-1.74,3.2-.46,4.84,.74,.94,1.73,1.7,2.97,2.28,5.62,2.6,11.84,3.28,18.49,2.01,4.12-.78,7.83-2.68,11.34-5.79l2.22-1.96Zm-24.99-15.47c-3.55,3.82-6.84,7.48-9.95,11.08,1.75-1.07,3.71-1.6,5.72-2.07,.62-.15,1.25-.29,1.88-.43,1.78-.4,3.62-.81,5.36-1.37,1.71-.55,3.02-1.44,4-2.73,.51-.66,1.04-1.31,1.55-1.94-2.93-.33-5.8-1.18-8.55-2.54Zm11.66,2.93h0s0,0,0,0Z"/>
  </g>
</svg>