<?xml version="1.0" encoding="UTF-8"?>
<svg id="Capa_1" data-name="Capa 1" xmlns="http://www.w3.org/2000/svg" viewBox="0 0 256 256">
  <defs>
    <style>
      .cls-1 {
        fill: #efda4f;
      }

      .cls-2 {
        fill: #323330;
      }
    </style>
  </defs>
  <rect x="23.5" y="29.14" width="209" height="204.71" rx="37.53" ry="37.53"/>
  <rect class="cls-1" x="38" y="43.64" width="180" height="175.71" rx="23.03" ry="23.03"/>
  <path class="cls-2" d="M176.54,207.75c-9.77-.08-18.55-2.71-25.57-9.9-1.78-1.82-3.23-3.88-4.54-6.06-.57-.95-.61-1.49,.5-2.1,3.84-2.14,7.65-4.35,11.42-6.61,.98-.59,1.4-.35,1.98,.53,2.74,4.23,6.27,7.47,11.36,8.61,3.48,.78,6.95,.8,10.33-.47,3-1.12,5.23-3.05,5.67-6.42,.45-3.46-1-6.1-3.86-7.99-3.8-2.51-8.07-4.05-12.2-5.85-4.32-1.89-8.58-3.88-12.23-6.92-7.96-6.63-10.17-15.25-7.71-24.92,2.39-9.37,9.29-14.16,18.48-15.88,4.43-.83,8.89-.64,13.29,.33,7.02,1.55,12.07,5.74,15.74,11.78,.44,.72,.4,1.12-.34,1.59-3.82,2.41-7.62,4.86-11.41,7.32-.68,.44-1.05,.31-1.43-.35-.79-1.36-1.72-2.62-2.91-3.66-3.26-2.84-7.03-3.43-10.99-2.02-4.88,1.74-6.19,8.13-2.6,11.96,1.47,1.57,3.33,2.58,5.25,3.46,3.95,1.8,7.94,3.49,11.87,5.33,4.38,2.06,8.43,4.6,11.97,7.98,8.38,8,9.95,29.09-6.12,36.88-5.05,2.44-10.39,3.4-15.95,3.38Z"/>
  <path class="cls-2" d="M136.39,155.98c0,9.64,.03,19.29-.03,28.93,0,1.55-.25,3.13-.58,4.66-2.01,9.53-7.74,15.49-17.32,17.43-7.46,1.51-14.77,1.05-21.63-2.63-4.66-2.5-8.02-6.27-10.53-10.89-.55-1.01-.29-1.45,.61-1.98,3.84-2.27,7.66-4.57,11.44-6.93,1-.62,1.43-.38,1.92,.57,.56,1.06,1.23,2.07,1.94,3.04,2.85,3.88,6.78,5.26,11.48,4.1,2.72-.67,4.39-2.4,5.17-5.03,.61-2.05,.68-4.15,.68-6.27,0-18.21,.02-36.41-.04-54.62,0-1.62,.37-2.17,2.07-2.12,4.28,.12,8.56,.11,12.84,0,1.62-.04,2.15,.36,2.14,2.07-.09,9.89-.04,19.77-.04,29.66-.04,0-.09,0-.13,0Z"/>
</svg>